<?xml version="1.0" encoding="utf-8"?>
<!-- Generator: Adobe Illustrator 27.4.1, SVG Export Plug-In . SVG Version: 6.00 Build 0)  -->
<svg version="1.1" id="rt" xmlns="http://www.w3.org/2000/svg" xmlns:xlink="http://www.w3.org/1999/xlink" x="0px" y="0px"
	 viewBox="0 0 1417.32 992.13" style="enable-background:new 0 0 1417.32 992.13;" xml:space="preserve">
<style type="text/css">
	.st0{fill:#FFCE00;stroke:#FFD700;stroke-miterlimit:10;}
</style>
<g>
	<path class="st0" d="M339.99,446.65c1.89-29.36,3.55-53.1,4.8-76.86c0.18-3.46-1.64-7.03-2.53-10.54
		c-3.01,1.94-7.37,3.19-8.76,5.96c-3.16,6.33-6.2,13.25-6.93,20.18c-3.62,34.18-6.73,68.43-9.31,102.71
		c-0.42,5.62,1.87,11.9,4.34,17.2c5.36,11.53,4.44,15.8-7.2,20.17c-9.27,3.47-18.73,6.92-28.41,8.64
		c-11.99,2.13-17.08-4.68-11.34-15.23c6.67-12.27,7.96-25.02,7.83-38.55c-0.28-29.96-0.05-59.92,0.08-89.88
		c0.04-9.53-0.45-18.16-7.85-26.04c-7.05-7.51-3.89-14.79,6.14-16.7c4.77-0.91,10.51-1.68,14.68,0.13
		c13.54,5.86,23.06,1.73,33.25-8.11c11.9-11.49,25.87-18.9,43.39-8.88c2.75,1.57,9.56-2.76,13.82-5.44
		c9.12-5.73,16.29-14.85,29.36-11.77c14.92,3.52,24.34,12.13,26.77,29.55c1.91,13.68,1.47,27.68,2.83,41.46
		c2.45,24.75,5.19,49.49,8.42,74.15c0.84,6.44,3.47,12.79,6.06,18.83c4.49,10.46,2.23,16.04-8.69,19.49
		c-13.41,4.24-31.3-4.82-36.48-21.34c-4.05-12.94-5.58-27.1-5.73-40.75c-0.26-24.38,1.39-48.78,2.19-73.18
		c0.09-2.76,0.56-5.82-0.4-8.23c-1.34-3.38-3.43-8.35-5.99-8.89c-3.57-0.76-10.32,0.88-11.39,3.37c-3.58,8.32-7.06,17.44-7.28,26.33
		c-0.64,26.51-0.35,53.09,0.88,79.58c0.63,13.6,3.36,27.22,6.38,40.54c1.79,7.9,1.27,13.59-7.15,15.3
		c-9.68,1.97-19.57,3.76-29.4,3.93c-11.82,0.2-16.66-6.24-16.48-17.79C340.2,477.71,339.99,459.44,339.99,446.65z"/>
	<path class="st0" d="M1140.58,193.01c0-18.86-0.01-37.71,0-56.57c0-8.32,0.59-16.58-7.68-22.44c-1.23-0.87-0.06-8.37,2.17-10.45
		c7.03-6.56,15.97-7.65,24.67-3.67c8.43,3.85,14.95,3.3,22.54-2.93c12.13-9.95,26.28-14.74,41.43-6.44
		c14.97,8.21,21.07,22.15,21.72,38.61c1.23,31.04,1.71,62.12,3.39,93.14c0.39,7.23,3.14,14.96,6.84,21.24
		c6.51,11.02,4.71,18.28-7.52,22.76c-19.04,6.97-38.7-5.71-41.38-28.15c-2.43-20.35-2.87-40.94-4.3-61.41
		c-1.2-17.15-2.32-34.32-4.11-51.41c-0.33-3.11-3.69-5.9-5.65-8.83c-2.61,1.81-6.76,3.11-7.55,5.53c-2.7,8.24-5.84,16.86-5.91,25.36
		c-0.26,34.9,0.43,69.81,1.12,104.71c0.09,4.81,1.37,9.97,3.48,14.27c4.39,8.95,0.06,13.13-7.65,13.85
		c-10.92,1.02-21.99,0.43-32.99,0.61c-3.75,0.06-7.75-0.36-11.21,0.76c-14.55,4.69-28.86,10.15-43.45,14.66
		c-3.17,0.98-8.26,0.39-10.43-1.66c-1.54-1.46,0.01-6.66,0.75-10.06c1.03-4.77,3.63-9.4,3.76-14.14
		c1.08-38.82,1.72-77.66,2.54-116.49c0.2-9.58-0.27-18.48-7.94-26.03c-6.6-6.49-3.11-11.62,4.33-15.31
		c19.23-9.53,36.36-1.85,38.93,19.75c2.08,17.49,0.38,35.42,0.74,53.15c0.45,22.71,0.54,45.47,2.42,68.08
		c0.55,6.64,7.2,18.48,10.07,18.19c10.24-1.04,7.52-11.53,7.67-18.74c0.42-19.97,0.14-39.95,0.14-59.93
		C1141.2,193.01,1140.89,193.01,1140.58,193.01z"/>
	<path class="st0" d="M677.36,645.42c0,13.88-0.41,27.77,0.21,41.62c0.23,5.26,1.48,11.54,4.63,15.38c6.18,7.55,5.5,14.21,0.24,21
		c-5.64,7.28-13.06,9.55-22.1,6.51c-16.92-5.69-28.49-20.46-29.14-40.39c-0.75-23.3-0.01-46.64-0.26-69.96
		c-0.07-6.02-0.44-12.39-2.43-17.95c-2.74-7.64-9.18-8.1-13.26-1.04c-2.67,4.62-4.67,10.27-4.9,15.56
		c-1.41,31.59-2.28,63.21-3.2,94.82c-0.28,9.53,0.52,18.47,8.02,26.11c5.45,5.56,5.14,12.88-2.91,16.33
		c-11.11,4.77-22.51,9.32-34.21,12.15c-11.88,2.87-14.89-1.9-11.83-13.49c2.65-10.03,5.31-20.49,5.2-30.73
		c-0.35-32.17-2.3-64.32-3.05-96.49c-0.61-26.07-0.45-52.15-0.47-78.23c-0.01-8.49-0.19-16.19-8.5-21.9c-7.28-5-2.9-9.06,2.94-12
		c20.18-10.15,44.06,0.89,49.45,23c0.79,3.23,1.45,6.53,1.7,9.84c0.67,8.63,5.44,11.51,13.44,10.25c1.63-0.26,3.27-0.51,4.91-0.71
		c30.29-3.67,42.78,5.4,45.34,35.51c1.54,18.14,0.28,36.53,0.28,54.81C677.42,645.42,677.39,645.42,677.36,645.42z"/>
	<path class="st0" d="M69.2,736.61c1.09-31,2.31-62,3.09-93c0.08-3.08-2.57-6.22-3.96-9.34c-2.25,2.69-4.73,5.22-6.72,8.1
		c-6.8,9.84-12.4,20.76-20.41,29.45c-8.72,9.46-21.51,5.17-22.68-7.43c-1.12-12.01-0.35-24.42,1.44-36.38
		c0.61-4.05,6.37-9.55,10.6-10.47c38.92-8.4,78.38-11.42,118.13-8.81c14.2,0.93,17.21,5.01,15.5,19.31
		c-1.19,9.9-2.72,19.81-5.04,29.48c-1.03,4.29-4.39,8.02-6.69,12c-4.79-3.21-10.87-5.48-14.03-9.87
		c-3.37-4.68-3.37-11.67-5.99-17.09c-1.84-3.82-5.59-6.71-8.49-10.02c-1.72,3.71-4.74,7.35-4.96,11.14
		c-2.37,42.06-4.48,84.13-6.29,126.22c-0.81,18.82-0.69,37.69-1.13,56.53c-0.19,8.02,0.52,14.37,8.98,19.37
		c9.17,5.42,7.64,15.04-2.69,18.46c-18.91,6.26-38.14,5.22-56.38-2.8c-8.66-3.81-9.35-10.48-1.25-16.4
		c7.65-5.59,7.85-12.44,8.09-20.32c0.88-29.36,2.01-58.72,3.05-88.07C70.66,736.66,69.93,736.63,69.2,736.61z"/>
	<path class="st0" d="M822.2,503.93c10.6,2.53,17.94-2.2,25.24-9.13c11.11-10.54,23.95-17.8,40.25-14.93
		c16.87,2.97,25.7,15.91,23.24,34.19c-2.26,16.79-18.03,30.71-32.83,28.96c-10.36-1.22-13.49-5.89-13.92-19.97
		c-0.07-2.38-1.42-4.72-2.18-7.08c-2.24,1.34-5.43,2.16-6.5,4.15c-1.74,3.22-2.79,7.17-2.94,10.86
		c-1.21,29.85-2.15,59.71-3.17,89.57c-0.23,6.65-0.6,13.3-0.56,19.94c0.04,6.85,0.99,12.88,8.83,16.11c3.16,1.3,6.86,6.57,6.54,9.64
		c-0.33,3.17-4.74,7.41-8.21,8.51c-14.69,4.68-29.59,8.8-44.63,12.14c-4.22,0.94-10.13-0.25-13.4-2.85
		c-1.8-1.43-0.12-7.9,0.71-11.95c1.1-5.37,3.96-10.54,4.24-15.9c2.04-38.75,3.87-77.52,5.08-116.31c0.17-5.47-2.31-11.82-5.48-16.43
		c-7.71-11.22-6.31-16.45,6.76-18.83C813.57,503.88,818.04,504.14,822.2,503.93z"/>
	<path class="st0" d="M562.84,736.02c-1.87,5.84-4.69,14.73-7.57,23.61c-4.62,14.25-15.88,19.6-29.26,20.17
		c-12.86,0.55-23.07-7.23-27.22-18.28c-5.75-15.3-10.01-31.71-11.5-47.96c-2.07-22.53-1.31-45.37-1.06-68.07
		c0.1-8.94-1.22-15.31-9.72-20.75c-11.5-7.36-10.79-15.22,1.35-20.14c7.5-3.04,9.62-7.79,10.89-14.77
		c1.28-7.04,2.53-14.49,5.85-20.64c3.25-6.02,8.3-11.82,13.96-15.58c9.84-6.53,16.41-3.76,20.14,7.56
		c1.69,5.15,2.36,10.85,2.34,16.3c-0.03,10,2.5,16.47,14.25,14.23c2.1-0.4,5.03-0.83,6.42,0.26c3.21,2.5,8.09,6.06,7.93,8.95
		c-0.22,3.91-4.3,10.66-7.11,10.87c-23.76,1.81-23.64,18.48-23.41,35.73c0.37,28.19,0.58,56.39,0.88,84.58
		c0.02,1.66-0.2,3.53,0.47,4.93c1.98,4.17,4.34,8.15,6.56,12.2c1.68-3.8,3.7-7.49,4.94-11.43c1.66-5.26,1.77-11.25,4.35-15.92
		c2.03-3.68,6.79-5.83,10.33-8.65c1.97,3.68,4.36,7.2,5.75,11.09C563.29,726.8,562.69,729.81,562.84,736.02z"/>
	<path class="st0" d="M1025.12,206.57c1.31,21.03,2.51,42.07,3.98,63.09c0.75,10.66,3.11,20.65,10.92,28.9
		c4.58,4.84,6.47,10.75-1.54,14.92c-16.6,8.65-34.38,11.58-52.81,10.4c-7.76-0.5-11.09-4.12-5.93-12.02
		c9.2-14.08,10.63-29.94,10.34-46.34c-0.57-32.19-0.3-64.41-1.2-96.59c-0.18-6.6-2.98-13.65-6.28-19.51
		c-4.36-7.75-3.59-12.34,5.15-13.76c4.66-0.76,10.23-0.43,14.43,1.51c8.63,3.99,14.91,1.73,20.29-5.1
		c9.65-12.25,23.98-14.74,38.52-5.44c10.58,6.77,17.35,28.03,11.79,40.5c-2.34,5.24-8.3,10.85-13.65,12.23
		c-7.78,2-12.91-4.6-15.96-11.65c-0.86-1.98-0.74-4.36-1.35-6.48c-1.16-4.03-2.53-8.01-3.81-12.01c-3.41,3.24-8.11,5.89-9.9,9.86
		c-2.38,5.29-3.34,11.61-3.4,17.5c-0.09,9.96,1,19.94,1.59,29.91C1025.91,206.52,1025.51,206.55,1025.12,206.57z"/>
	<path class="st0" d="M1124.47,72.38c-0.76,16.06-11.09,26.36-26.18,26.12c-13.11-0.21-24.76-11.99-24.15-24.42
		c0.64-12.98,19.32-31.62,30.63-30.55C1115.86,44.57,1125.15,58.18,1124.47,72.38z"/>
	<path class="st0" d="M751.37,376.55c-7.16-7.14-9.3-15.74-9.53-25.64c-0.57-24.96-1.22-49.95-3.02-74.84
		c-0.82-11.4-2.82-23.28-7.17-33.72c-5.85-14.07-18.21-19.4-32.76-14.89c-10.32,3.2-19.67,9.5-29.63,14.04
		c-5.3,2.41-11.84,6.86-16.3,5.47c-16.28-5.08-28.59,2.58-39.48,11.64c-10.98,9.13-20.73,18.07-36.14,11.89
		c-0.46-0.19-1.09,0.01-1.64,0.08c-10.02,1.25-11.37,4.84-6.73,13.98c2.9,5.72,5.71,12.23,5.92,18.47
		c1.13,32.73,1.72,65.49,1.85,98.24c0.06,13.89-3.86,26.9-15.45,37.32c1.11-5.64,1.86-11.38,3.4-16.9
		c2.25-8.01,1.99-14.36-7.75-16.53c-8.79-1.96-13.36,1.58-15.33,10.38c-1.68,7.5-3.64,15.23-7.19,21.94
		c-3.58,6.78-8.99,13.28-18.14,12.15c-9.24-1.14-12.11-8.74-14.32-16.36c-1.23-4.24-1.58-8.73-2.55-13.06
		c-2.38-10.65,0.91-18.49,10.86-23.31c11.38-5.52,22.52-11.62,34.13-16.6c14.56-6.25,19.63-12.77,16.29-28.18
		c-3.26-15.08-7.41-30.26-13.57-44.32c-9.51-21.71-31.86-28.26-52.53-16.72c-16.28,9.09-27.35,23.23-30.62,41.42
		c-4.42,24.49-6.89,49.36-9.57,74.13c-2.06,19.07,3.57,35.48,15.91,50.8c21.2,26.32,59.04,28,79.39,1.37
		c5.34-6.99,9.92-6.02,17.6-6.21c17.27-0.41,34.83-3.6,51.52-8.34c9.92-2.82,9.61-11.18,2.82-19.62c-4.24-5.27-9.37-11.8-9.65-17.97
		c-1.52-33.27-2.04-66.6-1.91-99.91c0.03-6.66,3.79-13.65,7.09-19.81c1.51-2.83,6.05-4.01,9.22-5.94c1.62,3.22,4.21,6.31,4.66,9.69
		c1.31,9.89,1.63,19.91,2.59,29.86c2.72,28.19,6.09,56.23-3.56,84.11c-2.08,6.02,0.12,14.37,2.54,20.81
		c1.29,3.44,8.04,7.91,10.98,7.08c14.77-4.18,29.41-9.24,43.46-15.46c7.67-3.4,9.01-9.64,2.97-17.61
		c-4.07-5.37-6.8-12.81-7.44-19.58c-2.7-28.74-4.54-57.56-6.3-86.38c-0.33-5.38-0.28-11.73,2.23-16.09
		c2.69-4.69,8.49-7.57,12.93-11.23c2.69,4.41,7.26,8.62,7.74,13.26c2.17,20.96,3.15,42.04,4.63,63.07
		c1.01,14.37,1.97,28.75,3.27,43.1c1,11.02,7.64,18.15,17.1,22.84c9.84,4.88,18.31,2.1,27.45-8.39
		C758.7,392,758.98,384.14,751.37,376.55z M502.27,322.52c0.33-4.81,3.66-9.41,5.62-14.11c3.34,4.39,8.41,8.34,9.66,13.27
		c2.82,11.16,3.76,22.81,5.9,37.15c-1.45,3.23-2.82,9.4-6.49,13.5c-2.81,3.14-8.51,3.67-12.93,5.36c-0.95-4.06-2.67-8.11-2.69-12.17
		C501.25,351.18,501.28,336.81,502.27,322.52z"/>
	<path class="st0" d="M465.56,736.96c-3.1,3.31-6.74,6.26-9.2,10c-7.89,11.97-14.35,25.03-23.26,36.13
		c-7.87,9.8-15.69,7.41-18.27-5.03c-2.24-10.79-2.43-22.02-3.53-33.05c-0.95-9.49,3.52-13.95,12.65-16.03
		c13.39-3.05,26.54-7.2,39.72-11.12c7.86-2.34,15.48-6.6,13.84-15.93c-3.63-20.69-6.98-41.71-13.66-61.5
		c-6.88-20.38-27.3-26.57-46.14-15.93c-7.54,4.26-14.12,10.48-20.5,16.49c-10.21,9.62-9.94,9.83-17.66-2.45
		c-1.45-2.3-3.24-4.52-5.3-6.26c-9.96-8.41-17.59-9.22-29.91-0.26c-13.69,9.95-27.08,17.71-45.12,16.21
		c-12.07-1-20.03,8.58-26.06,18.06c-15.44,24.26-16.7,50.24-5.92,76.41c3.37,8.18,2.05,14.09-0.6,21.86
		c-4.03,11.83-7.65,24.57-7.57,36.9c0.18,26.49,17.31,39.1,42.84,33.67c8.08-1.72,16.03-4.12,24.11-5.86
		c14.5-3.11,22.11,4.03,20.51,18.96c-1.91,17.86-18.66,35.07-36.52,38.37c-8.15,1.51-12.62-1.31-14.78-9.05
		c-1.64-5.87-3.06-11.88-5.47-17.44c-3.51-8.1-16.68-16.76-23.74-15.55c-10.74,1.84-15.23,10.04-17.75,19.65
		c-5.2,19.81,4.61,36.1,25.18,41.44c7.45,1.93,15.17,2.83,22.64,4.72c13.78,3.49,26.42,0.88,37.59-7.44
		c28.4-21.13,41.85-48.77,37.21-85.05c-3.06-23.89-24.55-49.07-56.73-40.52c-4.79,1.27-9.52,2.9-14.39,3.7
		c-1.57,0.26-3.48-1.6-5.23-2.49c1.25-2.13,2.06-4.89,3.89-6.2c1.52-1.09,4.25-0.45,6.43-0.65c36.94-3.49,54.72-23.51,52.34-60.6
		c-0.92-14.29-4.48-28.39-6.55-42.63c-0.35-2.44,0.74-5.09,1.16-7.64c2.06,1.29,4.39,2.29,6.14,3.92c3.48,3.27,6.17,9.12,10.02,9.93
		c10.58,2.24,9.2,8.71,8.32,16.3c-1.59,13.77-2.56,27.6-4.16,45.52c1.95,13.71,3.08,31.57,7.3,48.66
		c4.92,19.95,21.65,32.07,38.14,30.79c27.43-2.12,53.76-26.61,57.61-54.14c0.58-4.16-0.33-8.96-1.92-12.9
		C471.54,744.62,468.21,740.93,465.56,736.96z M411.81,691.46c1.34-11.53,2.43-22.58,4.07-33.55c0.35-2.33,2.67-4.36,4.09-6.52
		c1.6,1.95,4.2,3.71,4.62,5.89c2.11,10.88,4.13,21.83,5.27,32.84c1.08,10.4-2.7,14.91-10.78,14.49
		C409.27,704.11,412.31,696.55,411.81,691.46z M312.8,736.32c-1.8,6.01-6.36,6.47-8.94,0.34c-8.06-19.18-4.78-38.1,3-56.44
		c2.17-5.11,6.8-4.39,8.12,0.66c2.08,7.97,2.75,16.31,4.37,26.76C317.49,716.03,315.78,726.37,312.8,736.32z"/>
	<path class="st0" d="M1368.12,113.61c1.58,2.77,1.01,6.94,2.85,9.35c1.6,2.1,5.69,4.17,7.93,3.55
		c13.07-3.62,20.3-22.93,14.61-37.68c-5.68-14.74-14.46-18.03-30.28-11.28c-2.53,1.08-5.29,1.99-7.39,3.67
		c-7.87,6.29-15.94,7.03-26.08,5.49c-17.37-2.63-35.89,0.57-47.29,14.16c-14.2,16.93-29.5,54.96-11.59,82.25
		c3.97,6.04,4.47,11.17,0.88,18.32c-19.13,38.11,2.64,72.31,44.78,71.57c6.05,0,12.19-0.65,18.14,0.14
		c12.02,1.6,15.64,6.03,12.73,18.04c-2.43,10.04-6.38,19.98-11.26,29.09c-5.75,10.73-16.69,9.15-26.59,8.04
		c-10.23-1.14-10.39-9.46-11.84-17.28c-1.19-6.4-2.92-13.24-6.44-18.5c-2.72-4.06-8.32-7.7-13.12-8.45
		c-7.78-1.22-24.24,11.51-27.22,19.14c-4,10.25-0.87,20.4,9.29,29.55c2.87,2.58,5.89,5.04,9.07,7.23
		c44.34,30.54,93.3,13.71,108.93-37.39c0.81-2.65,1.78-5.25,2.7-7.86c11.83-33.63-9.36-69.51-44.49-74.63
		c-9.22-1.34-18.71-0.68-28-1.69c-3.89-0.42-7.58-2.77-11.37-4.25c3.82-2.03,7.46-4.57,11.5-5.94c3.58-1.21,7.6-1.04,11.4-1.61
		c21.98-3.29,35.45-15.77,41.49-37.42c5.03-18.03,1.78-35.05-3.09-52.35c-0.97-3.46,1.49-7.9,2.36-11.88
		C1363.24,107.83,1366.27,110.38,1368.12,113.61z M1320.21,172.84c-4.89,8.48-9.78,9.21-14.46,0.91
		c-4.43-7.86-6.53-17.05-10.01-26.66c4.18-11.8,7.18-23.54,12.48-34.11c3.72-7.43,11.56-6.96,13.46,0.37
		C1326.81,133.13,1331.45,153.35,1320.21,172.84z"/>
	<path class="st0" d="M788.82,533.02c-6.1-15.12-19.11-23.81-35.02-21.4c-7.4,1.12-15.22,3.73-21.41,7.86
		c-23.63,15.75-39.08,37.01-41.33,66.58c-1.18,15.47-3.23,30.88-5.48,51.89c1.51,10.59,1.1,27.4,6.6,41.94
		c10.39,27.47,36.23,42.69,63.22,26.01c19.69-12.17,34.86-49.54,28.6-71.86c-0.76-2.72-3.6-6.55-5.73-6.73
		c-2.37-0.2-6.06,2.65-7.36,5.14c-2.26,4.34-2.87,9.52-4.64,14.16c-3.14,8.25-5.84,16.84-10.3,24.34c-2.12,3.55-8.14,7.1-11.91,6.63
		c-3.62-0.45-8.5-5.58-9.5-9.52c-2.59-10.12-3.61-20.7-4.73-31.15c-0.82-7.68,3.86-10.22,10.86-11.6
		c18.63-3.66,31.81-16.85,45.7-28.44c3.1-2.58,5.62-7.31,6.14-11.34C794.79,567.86,795.73,550.15,788.82,533.02z M753.11,582.99
		c-5.54,6.11-12.4,11.01-18.73,16.39c-0.5-6.15-1.9-12.4-1.26-18.43c0.85-8.11,2.61-16.29,5.32-23.95c1.2-3.39,5.71-5.6,8.72-8.35
		c2.18,3.32,5.21,6.38,6.31,10.03c1.23,4.08,0.71,8.7,1.01,14.26C754.19,575.62,755.18,580.71,753.11,582.99z"/>
	<path class="st0" d="M968.85,270.39c-7.94-0.54-11.85,4.03-14,11.31c-2.51,8.47-5.12,17.01-8.8,25c-1.65,3.58-5.87,8-9.14,8.18
		c-2.96,0.17-7.6-4.3-9.08-7.77c-4.1-9.62-7.35-19.67-10.13-29.78c-2.44-8.86,1.12-14.67,10.22-17.65
		c12.55-4.11,24.62-9.77,37.27-13.46c10.77-3.14,14.15-9.91,12.48-19.91c-2.92-17.44-6.34-34.81-9.64-52.18
		c-2.75-14.5-10.99-23.86-25.57-27.02c-15.85-3.44-27.06,3.07-37.36,15.17c-22.7,26.64-25.95,58.98-29.6,91.17
		c1.24,11.55,1.2,22.88,3.92,33.49c3.27,12.74,7.22,25.87,13.81,37.08c15.61,26.57,50.7,30.24,67.18,6.29
		c9.45-13.72,14.36-30.9,19.73-47.06C982.65,275.65,976.68,270.93,968.85,270.39z M926.38,187.76c0.36-1.45,3.44-3.51,4.64-3.15
		c1.53,0.45,3.22,2.97,3.45,4.78c0.85,6.51,1.11,13.1,1.59,19.66c0.11,0.01,0.22,0.01,0.33,0.02c0,4.93,0.01,9.87,0,14.8
		c-0.02,9.47-7.39,11.37-14.19,13c-1.35,0.32-5.7-4.24-5.39-5.93C919.53,216.46,922.87,202.08,926.38,187.76z"/>
	<path class="st0" d="M274.26,486.87c-1.04-8.77-7.87-10-14.32-11.06c-6.77-1.12-7.55,4.18-8.91,9.32
		c-2.24,8.44-4.01,17.47-8.4,24.78c-7.11,11.83-21.62,10.4-27.23-2.18c-2.9-6.5-4.1-13.75-6.13-20.65
		c-2.99-10.13,1.01-15.94,10.9-18.31c10.17-2.44,20.42-4.63,30.45-7.56c20.51-5.99,22.71-9.26,22.26-31.92
		c0.59-18.67-4.93-37.32-16.17-53.45c-4.97-7.14-13.41-13.82-21.6-16.32c-29.32-8.95-56.69,4.97-63.43,42.09
		c-5.28,29.13-5.02,58.58,1.39,87.59c4.5,20.39,13.58,38.64,29.53,52.7c8.7,7.66,18.58,12.19,30.34,8.71
		C251.26,545.17,276.5,505.81,274.26,486.87z M211.71,388.64c0.38-2.94,4.35-5.41,6.67-8.1c2.32,2.67,6.13,5.05,6.68,8.05
		c1.49,8.1,1.59,16.46,2.05,22.3c0,9.08,0.05,15.71-0.01,22.35c-0.07,7.36-5.64,10.13-10.99,9.26c-3.26-0.54-8.18-6.13-8.11-9.36
		C208.32,418.27,209.81,403.4,211.71,388.64z"/>
	<path class="st0" d="M174.15,541.49c-4.5-2.98-9.98-6.2-12.12-10.7c-4.66-9.82-8.37-20.33-10.83-30.94
		c-4.2-18.16-2.75-37.68-14.54-54.03c-1.81-2.5-0.12-10.14,2.53-12.92c21.26-22.38,20.3-49.5,15.81-76.65
		c-4.18-25.28-19.93-41.86-44.92-47.58c-15.96-3.65-32.42-5.1-48.65-7.54c-0.11,0.82-0.21,1.65-0.32,2.47
		c-3.3,0-6.61,0.07-9.91-0.02c-3.85-0.1-7.74-0.74-11.55-0.44c-10.96,0.87-13.75,7.7-8.01,16.98c3.89,6.3,8.64,13.31,9.09,20.27
		c1.23,18.77,2,37.86,0.01,56.51c-4.47,42.01-8.58,83.83-3.37,126.11c1.24,10.04,2.95,21.11-5.27,30.16
		c-0.8,0.89,1.6,7.03,2.82,7.13c18.58,1.64,37.21,3,55.85,3.5c2.62,0.07,7.12-4.48,7.53-7.35c0.37-2.62-3.65-5.86-5.71-8.84
		c-3.91-5.66-10.64-11.07-11.16-17.03C79.89,513,80.6,495.2,80.91,477.5c0.14-7.84,5.45-9.86,12.56-9.51
		c8.2,0.41,11.82,6.01,13.53,12.53c2.66,10.16,4.24,20.61,6.09,30.98c2.88,16.22,9.38,30.8,20.29,43
		c10.67,11.93,30.3,13.44,42.08,3.96C183.87,551.7,183.36,547.58,174.15,541.49z M104.23,422.55c-1.83,2.66-4.49,4.93-7.18,6.76
		c-10.86,7.34-15.34,5.03-16.23-8.52c-0.94-14.38-1.49-28.79-2.21-43.19c0.25,0,0.5,0,0.75,0c0-13.85-0.34-27.71,0.27-41.53
		c0.13-2.92,3.17-7.41,5.79-8.24c12.5-3.98,27.59,4.32,31.69,17.33C125.9,373.06,120.59,398.83,104.23,422.55z"/>
	<path class="st0" d="M860.08,222.01c-4.36-25.91-17.87-35.4-44.26-33.28c-12.73,1.02-14.04,0.01-15.85-12.75
		c-0.47-3.29-0.6-6.63-0.79-9.96c-1.72-29.31-20.2-32.45-44.56-28.54c-3.53,0.57-8.25,4.91-9,8.29c-0.68,3.03,2.47,9.01,5.45,10.4
		c9.35,4.36,10.24,11.75,10.54,20.55c1.17,34.37,3.38,68.72,3.97,103.1c0.44,26.03-1.01,52.1-1.6,78.15
		c-0.13,5.54-1.37,11.39-0.01,16.54c1.55,5.89,4.1,13.83,8.59,16.09c7.52,3.79,11.75-3.89,14.02-10.2
		c3.76-10.47,9.15-10.59,17.4-4.81c9.24,6.46,18.66,4.76,27.84-1.12c19.56-12.52,33.61-28.63,35.11-53.18
		c0.54-8.85,0.97-17.71,1.45-26.56c0.43-0.08,0.86-0.17,1.29-0.25C866.51,270.31,864.11,246.02,860.08,222.01z M822.6,331.22
		c-0.81,4.28-4.65,7.97-7.11,11.93c-2.56-3.81-6.66-7.34-7.4-11.49c-2.56-14.18-4.72-28.52-5.57-42.89
		c-1.11-18.82-0.91-37.73-1.11-56.6c-0.07-6.4,0.95-13.38,8.87-13.5c7.69-0.12,9.27,6.72,9.82,13.08c1.98,22.66,3.84,45.33,5.91,70
		C825.1,310.33,824.56,320.91,822.6,331.22z"/>
	<path class="st0" d="M240.1,699.81c-7.05-25.23-24.9-36.02-48.05-38.21c-19.28-1.83-36.25,13.13-43.83,36.11
		c-7.66,23.21-14.36,46.64-13.98,71.68c1.53,15.94,1.37,32.29,5.01,47.73c4.79,20.27,18.66,33.92,39.39,38.04
		c20.36,4.05,34.55-5.43,45.22-22.83C249.51,790.5,253.19,746.63,240.1,699.81z M200.89,804.23c-1.6,7.75-8.53,14.39-13.05,21.53
		c-3.35-7.02-7.87-13.73-9.85-21.12c-6.95-26.04-8.54-52.54-2.16-78.93c2.71-11.19,7.11-22.01,11.37-32.74
		c1.06-2.68,4.53-4.38,6.89-6.54c2.11,2.92,5.39,5.57,6.1,8.8c2.02,9.16,3.7,18.52,4.17,27.87c0.58,11.59-0.18,23.25-0.37,34.88
		c0.48,0.02,0.97,0.05,1.45,0.07C204.1,773.48,203.99,789.17,200.89,804.23z"/>
</g>
</svg>
