<svg xmlns="http://www.w3.org/2000/svg" xml:space="preserve" viewBox="0 0 85 77">
  <style>
    .st0{fill:#e4e15f}.st1{fill:#d59d6c}.st2{fill:#7d6f5f}
  </style>
  <path id="Layer_1" d="M69 50c-6 0-3-7-7-7-7 10-11-2-16-6-8 4-15 6-24 3-2 6-14 9-16 0-5-4-4-7-1-12V16C8 6 32-5 38 10c11 2 16-12 25 8 1 4 9 1 11 5 11 8 9 26-5 27z" class="st0"/>
  <path id="Layer_3" d="M15 34c4-1 4 6 5-4 2 5 2 3 5-1-9 10 1 37-5 43-2-10 4-31-5-38zm32-15c3 12 5-2 4-5 0 15-7 37-4 55 1 2 0 4-1 3 0-41 1-32-5-46v-1c2 3 2-6 3-3 0 2-3 7 1 10 5-3 1-13 2-13zm25 21c0 2-4 7 3 2 1 2-7 3-9 6-1 4 2 32-1 21-3 6 1-19-3-23-2-3-6-4-4-8 2 4 0 4 0 0-1 5 5 5 2 0 2 12 8 11 6-1 2 3 0 5 3 1-5 9-1 11 3 2z" class="st1"/>
  <g id="Layer_2">
    <path d="M53 72h1-1zm-20-1v1-1zm22 1v1-1zm-4 1c0-1 0-1 0 0zm-12-1c0-1 0 0 0 0zm10 1s0-1 0 0zm-15-2c0 1 0 1 0 0z" class="st2"/>
    <path d="M52 70zM17 22l2 2-2-2z" class="st1"/>
    <path d="M61 40c0 11 9 3 4-4 6 9-5 16-5 1l1 3z" class="st2"/>
    <path d="M68 42c-4 10 3 0 4-2-2 3-3 6-6 7 0-3 6-13 2-5zM51 12c2 4-3 19-4 8 0 4 3 6 4-2v-6z" class="st2"/>
    <path d="M46 32c3-4 1-9 1-13 0 3 2 10-1 13zm-3-5c0 3 2 4 2 5-6-3 1-15-2-5zm16 14c2 2 1-3 1-3v4c-2 0-3-3-2-4l1 3zm-17-4-6-6 6 6zm33 5c-3 3-5 2-3-2-1 4-1 4 3 2z" class="st2"/>
    <path d="M41 24c3 4 1-2 2-3 0 2 0 8-2 3zm28 14c-2 5-2 1-3-2l1 3c0 4 2-3 2-1z" class="st2"/>
    <path d="M47 21zm20 18zM51 18z" class="st1"/>
    <path d="M52 15v4-4z" class="st0"/>
    <path d="M60 43z" class="st2"/>
    <path d="M20 29c1-2 0-5 2-5l-2 5zm4-9-2 4 2-4zm1 9zm2-2v-1 1zm-13 6z" class="st1"/>
    <path d="m61 73 1-2c0 1 0 3-1 2zm-35-1v2-2zm38 0c0-1 0-3 1-2l-1 2zm-6 0h2-2zm-31-1 2 1-2-1zm38 1c1-2 2 2 1 0h-1zm-42-2 1 3-1-3zm40 1v1-1zm-7 2v-3 3zm-4-3v3-3zm-27 3v-1 1zm7-1v-2 2zm4 0v-3 3zm14-34c0 3 7 11 6 9-4-2-5-5-6-9zm20 34c-2 1-2-2-1-3 1 1-1 3 1 3zm0 0c1 0 4 0 3 2-1-3-1 0-3-2zm-52 1-4 1h2c1 0 1-2 2-1zm23-47c8 13 3 31 4 46-1-16 3-32-4-46zM56 9c3 5 8 12 2 17-2 1 1 3-2 4-2 0 0 2-3 3-3 2 1 3-4 3 5 0 0-2 4-3 3-1 1-3 3-3 3-1 0-4 2-5 6-5 1-15-7-17l5 1z" class="st2"/>
    <path d="M60 43c6 7 4 19 4 28-1-9 1-17-2-25-1-2-7-5-4-9-1 2 0 5 2 6zm20-4c1 5-4 11-9 10 6-1 6-3 9-7 0-3-1-6 1-9-1 2-2 4-1 6zM25 3c-5 2-6 0-8 5-2-1-2 0-3 2-1-3 2-2 3-3 1-6 5-3 8-4zm-6 33c0 2-1-2-4-2 1 1-6-2-2-2 2 1 4 3 6 2 1-4 3-10-2-12 4 2 1 1 0 0 5 3 6 1 8-4 0 5-6 10-4 15 3-2 5-8 7-7-10 12-6 29-6 45 0 9-4-34 3-42-7 12-3-6-6 7zm1-7 2-5c-2 0-1 3-2 5zm4-9-2 4 2-4z" class="st2"/>
    <path d="M20 60c-2 4 2 13-2 13 3-8 1-25 0-36 0-2-2-2-3-3 8 5 3 18 5 26z" class="st2"/>
    <path d="M9 11c-10 12-3 8-1 16-11 4 1 23 9 15-2 4-9 1-11-1-2-1 0-4-2-6-1-1-2-2-1-4 5-6 6-4 0-10C3 17 8 8 13 9c1 1-2-2-4 2zm27-1c1 3 2 1 4 4-1-2 3-4 2-3-5 2 0 8-2 11s2 7-4 7c-7 2 15 9-10 13 5-1 16-3 10-9-1-2-4-1-2-3 9-6 3 1 6-10-2-8-6-16-15-17 5-1 9 2 11 7zm34 12c4 2 8 5 10 9-3-4-7-9-13-8l3-1zm-4 50c1-11-5-26 9-30l-4 3c-10 5-2 19-5 27zM52 16c0-11 0 8-3 12-4 14-1 29-2 43-1-18 0-37 5-55z" class="st2"/>
  </g>
</svg>
