<svg xmlns="http://www.w3.org/2000/svg" xml:space="preserve" style="enable-background:new 0 0 1417.32 992.13" viewBox="0 0 1417.32 992.13">
  <style>
    .st0{display:none}.st3{fill:#ffce00;stroke:gold;stroke-miterlimit:10}
  </style>
  <g id="rt">
    <path d="M339.99 446.65c1.89-29.36 3.55-53.1 4.8-76.86.18-3.46-1.64-7.03-2.53-10.54-3.01 1.94-7.37 3.19-8.76 5.96-3.16 6.33-6.2 13.25-6.93 20.18-3.62 34.18-6.73 68.43-9.31 102.71-.42 5.62 1.87 11.9 4.34 17.2 5.36 11.53 4.44 15.8-7.2 20.17-9.27 3.47-18.73 6.92-28.41 8.64-11.99 2.13-17.08-4.68-11.34-15.23 6.67-12.27 7.96-25.02 7.83-38.55-.28-29.96-.05-59.92.08-89.88.04-9.53-.45-18.16-7.85-26.04-7.05-7.51-3.89-14.79 6.14-16.7 4.77-.91 10.51-1.68 14.68.13 13.54 5.86 23.06 1.73 33.25-8.11 11.9-11.49 25.87-18.9 43.39-8.88 2.75 1.57 9.56-2.76 13.82-5.44 9.12-5.73 16.29-14.85 29.36-11.77 14.92 3.52 24.34 12.13 26.77 29.55 1.91 13.68 1.47 27.68 2.83 41.46 2.45 24.75 5.19 49.49 8.42 74.15.84 6.44 3.47 12.79 6.06 18.83 4.49 10.46 2.23 16.04-8.69 19.49-13.41 4.24-31.3-4.82-36.48-21.34-4.05-12.94-5.58-27.1-5.73-40.75-.26-24.38 1.39-48.78 2.19-73.18.09-2.76.56-5.82-.4-8.23-1.34-3.38-3.43-8.35-5.99-8.89-3.57-.76-10.32.88-11.39 3.37-3.58 8.32-7.06 17.44-7.28 26.33-.64 26.51-.35 53.09.88 79.58.63 13.6 3.36 27.22 6.38 40.54 1.79 7.9 1.27 13.59-7.15 15.3-9.68 1.97-19.57 3.76-29.4 3.93-11.82.2-16.66-6.24-16.48-17.79.31-18.28.1-36.55.1-49.34zM1140.58 193.01c0-18.86-.01-37.71 0-56.57 0-8.32.59-16.58-7.68-22.44-1.23-.87-.06-8.37 2.17-10.45 7.03-6.56 15.97-7.65 24.67-3.67 8.43 3.85 14.95 3.3 22.54-2.93 12.13-9.95 26.28-14.74 41.43-6.44 14.97 8.21 21.07 22.15 21.72 38.61 1.23 31.04 1.71 62.12 3.39 93.14.39 7.23 3.14 14.96 6.84 21.24 6.51 11.02 4.71 18.28-7.52 22.76-19.04 6.97-38.7-5.71-41.38-28.15-2.43-20.35-2.87-40.94-4.3-61.41-1.2-17.15-2.32-34.32-4.11-51.41-.33-3.11-3.69-5.9-5.65-8.83-2.61 1.81-6.76 3.11-7.55 5.53-2.7 8.24-5.84 16.86-5.91 25.36-.26 34.9.43 69.81 1.12 104.71.09 4.81 1.37 9.97 3.48 14.27 4.39 8.95.06 13.13-7.65 13.85-10.92 1.02-21.99.43-32.99.61-3.75.06-7.75-.36-11.21.76-14.55 4.69-28.86 10.15-43.45 14.66-3.17.98-8.26.39-10.43-1.66-1.54-1.46.01-6.66.75-10.06 1.03-4.77 3.63-9.4 3.76-14.14 1.08-38.82 1.72-77.66 2.54-116.49.2-9.58-.27-18.48-7.94-26.03-6.6-6.49-3.11-11.62 4.33-15.31 19.23-9.53 36.36-1.85 38.93 19.75 2.08 17.49.38 35.42.74 53.15.45 22.71.54 45.47 2.42 68.08.55 6.64 7.2 18.48 10.07 18.19 10.24-1.04 7.52-11.53 7.67-18.74.42-19.97.14-39.95.14-59.93-.32-.01-.63-.01-.94-.01zM1124.47 72.38c-.76 16.06-11.09 26.36-26.18 26.12-13.11-.21-24.76-11.99-24.15-24.42.64-12.98 19.32-31.62 30.63-30.55 11.09 1.04 20.38 14.65 19.7 28.85zM677.36 645.42c0 13.88-.41 27.77.21 41.62.23 5.26 1.48 11.54 4.63 15.38 6.18 7.55 5.5 14.21.24 21-5.64 7.28-13.06 9.55-22.1 6.51-16.92-5.69-28.49-20.46-29.14-40.39-.75-23.3-.01-46.64-.26-69.96-.07-6.02-.44-12.39-2.43-17.95-2.74-7.64-9.18-8.1-13.26-1.04-2.67 4.62-4.67 10.27-4.9 15.56-1.41 31.59-2.28 63.21-3.2 94.82-.28 9.53.52 18.47 8.02 26.11 5.45 5.56 5.14 12.88-2.91 16.33-11.11 4.77-22.51 9.32-34.21 12.15-11.88 2.87-14.89-1.9-11.83-13.49 2.65-10.03 5.31-20.49 5.2-30.73-.35-32.17-2.3-64.32-3.05-96.49-.61-26.07-.45-52.15-.47-78.23-.01-8.49-.19-16.19-8.5-21.9-7.28-5-2.9-9.06 2.94-12 20.18-10.15 44.06.89 49.45 23 .79 3.23 1.45 6.53 1.7 9.84.67 8.63 5.44 11.51 13.44 10.25 1.63-.26 3.27-.51 4.91-.71 30.29-3.67 42.78 5.4 45.34 35.51 1.54 18.14.28 36.53.28 54.81h-.1zM69.2 736.61c1.09-31 2.31-62 3.09-93 .08-3.08-2.57-6.22-3.96-9.34-2.25 2.69-4.73 5.22-6.72 8.1-6.8 9.84-12.4 20.76-20.41 29.45-8.72 9.46-21.51 5.17-22.68-7.43-1.12-12.01-.35-24.42 1.44-36.38.61-4.05 6.37-9.55 10.6-10.47 38.92-8.4 78.38-11.42 118.13-8.81 14.2.93 17.21 5.01 15.5 19.31-1.19 9.9-2.72 19.81-5.04 29.48-1.03 4.29-4.39 8.02-6.69 12-4.79-3.21-10.87-5.48-14.03-9.87-3.37-4.68-3.37-11.67-5.99-17.09-1.84-3.82-5.59-6.71-8.49-10.02-1.72 3.71-4.74 7.35-4.96 11.14-2.37 42.06-4.48 84.13-6.29 126.22-.81 18.82-.69 37.69-1.13 56.53-.19 8.02.52 14.37 8.98 19.37 9.17 5.42 7.64 15.04-2.69 18.46-18.91 6.26-38.14 5.22-56.38-2.8-8.66-3.81-9.35-10.48-1.25-16.4 7.65-5.59 7.85-12.44 8.09-20.32.88-29.36 2.01-58.72 3.05-88.07-.71-.01-1.44-.04-2.17-.06zM822.2 503.93c10.6 2.53 17.94-2.2 25.24-9.13 11.11-10.54 23.95-17.8 40.25-14.93 16.87 2.97 25.7 15.91 23.24 34.19-2.26 16.79-18.03 30.71-32.83 28.96-10.36-1.22-13.49-5.89-13.92-19.97-.07-2.38-1.42-4.72-2.18-7.08-2.24 1.34-5.43 2.16-6.5 4.15-1.74 3.22-2.79 7.17-2.94 10.86-1.21 29.85-2.15 59.71-3.17 89.57-.23 6.65-.6 13.3-.56 19.94.04 6.85.99 12.88 8.83 16.11 3.16 1.3 6.86 6.57 6.54 9.64-.33 3.17-4.74 7.41-8.21 8.51-14.69 4.68-29.59 8.8-44.63 12.14-4.22.94-10.13-.25-13.4-2.85-1.8-1.43-.12-7.9.71-11.95 1.1-5.37 3.96-10.54 4.24-15.9 2.04-38.75 3.87-77.52 5.08-116.31.17-5.47-2.31-11.82-5.48-16.43-7.71-11.22-6.31-16.45 6.76-18.83 4.3-.74 8.77-.48 12.93-.69z" class="st3"/>
    <path d="M562.84 736.02c-1.87 5.84-4.69 14.73-7.57 23.61-4.62 14.25-15.88 19.6-29.26 20.17-12.86.55-23.07-7.23-27.22-18.28-5.75-15.3-10.01-31.71-11.5-47.96-2.07-22.53-1.31-45.37-1.06-68.07.1-8.94-1.22-15.31-9.72-20.75-11.5-7.36-10.79-15.22 1.35-20.14 7.5-3.04 9.62-7.79 10.89-14.77 1.28-7.04 2.53-14.49 5.85-20.64 3.25-6.02 8.3-11.82 13.96-15.58 9.84-6.53 16.41-3.76 20.14 7.56 1.69 5.15 2.36 10.85 2.34 16.3-.03 10 2.5 16.47 14.25 14.23 2.1-.4 5.03-.83 6.42.26 3.21 2.5 8.09 6.06 7.93 8.95-.22 3.91-4.3 10.66-7.11 10.87-23.76 1.81-23.64 18.48-23.41 35.73.37 28.19.58 56.39.88 84.58.02 1.66-.2 3.53.47 4.93 1.98 4.17 4.34 8.15 6.56 12.2 1.68-3.8 3.7-7.49 4.94-11.43 1.66-5.26 1.77-11.25 4.35-15.92 2.03-3.68 6.79-5.83 10.33-8.65 1.97 3.68 4.36 7.2 5.75 11.09.89 2.49.29 5.5.44 11.71zM1025.12 206.57c1.31 21.03 2.51 42.07 3.98 63.09.75 10.66 3.11 20.65 10.92 28.9 4.58 4.84 6.47 10.75-1.54 14.92-16.6 8.65-34.38 11.58-52.81 10.4-7.76-.5-11.09-4.12-5.93-12.02 9.2-14.08 10.63-29.94 10.34-46.34-.57-32.19-.3-64.41-1.2-96.59-.18-6.6-2.98-13.65-6.28-19.51-4.36-7.75-3.59-12.34 5.15-13.76 4.66-.76 10.23-.43 14.43 1.51 8.63 3.99 14.91 1.73 20.29-5.1 9.65-12.25 23.98-14.74 38.52-5.44 10.58 6.77 17.35 28.03 11.79 40.5-2.34 5.24-8.3 10.85-13.65 12.23-7.78 2-12.91-4.6-15.96-11.65-.86-1.98-.74-4.36-1.35-6.48-1.16-4.03-2.53-8.01-3.81-12.01-3.41 3.24-8.11 5.89-9.9 9.86-2.38 5.29-3.34 11.61-3.4 17.5-.09 9.96 1 19.94 1.59 29.91-.39.03-.79.06-1.18.08zM751.37 376.55c-7.16-7.14-9.3-15.74-9.53-25.64-.57-24.96-1.22-49.95-3.02-74.84-.82-11.4-2.82-23.28-7.17-33.72-5.85-14.07-18.21-19.4-32.76-14.89-10.32 3.2-19.67 9.5-29.63 14.04-5.3 2.41-11.84 6.86-16.3 5.47-16.28-5.08-28.59 2.58-39.48 11.64-10.98 9.13-20.73 18.07-36.14 11.89-.46-.19-1.09.01-1.64.08-10.02 1.25-11.37 4.84-6.73 13.98 2.9 5.72 5.71 12.23 5.92 18.47 1.13 32.73 1.72 65.49 1.85 98.24.06 13.89-3.86 26.9-15.45 37.32 1.11-5.64 1.86-11.38 3.4-16.9 2.25-8.01 1.99-14.36-7.75-16.53-8.79-1.96-13.36 1.58-15.33 10.38-1.68 7.5-3.64 15.23-7.19 21.94-3.58 6.78-8.99 13.28-18.14 12.15-9.24-1.14-12.11-8.74-14.32-16.36-1.23-4.24-1.58-8.73-2.55-13.06-2.38-10.65.91-18.49 10.86-23.31 11.38-5.52 22.52-11.62 34.13-16.6 14.56-6.25 19.63-12.77 16.29-28.18-3.26-15.08-7.41-30.26-13.57-44.32-9.51-21.71-31.86-28.26-52.53-16.72-16.28 9.09-27.35 23.23-30.62 41.42-4.42 24.49-6.89 49.36-9.57 74.13-2.06 19.07 3.57 35.48 15.91 50.8 21.2 26.32 59.04 28 79.39 1.37 5.34-6.99 9.92-6.02 17.6-6.21 17.27-.41 34.83-3.6 51.52-8.34 9.92-2.82 9.61-11.18 2.82-19.62-4.24-5.27-9.37-11.8-9.65-17.97-1.52-33.27-2.04-66.6-1.91-99.91.03-6.66 3.79-13.65 7.09-19.81 1.51-2.83 6.05-4.01 9.22-5.94 1.62 3.22 4.21 6.31 4.66 9.69 1.31 9.89 1.63 19.91 2.59 29.86 2.72 28.19 6.09 56.23-3.56 84.11-2.08 6.02.12 14.37 2.54 20.81 1.29 3.44 8.04 7.91 10.98 7.08 14.77-4.18 29.41-9.24 43.46-15.46 7.67-3.4 9.01-9.64 2.97-17.61-4.07-5.37-6.8-12.81-7.44-19.58-2.7-28.74-4.54-57.56-6.3-86.38-.33-5.38-.28-11.73 2.23-16.09 2.69-4.69 8.49-7.57 12.93-11.23 2.69 4.41 7.26 8.62 7.74 13.26 2.17 20.96 3.15 42.04 4.63 63.07 1.01 14.37 1.97 28.75 3.27 43.1 1 11.02 7.64 18.15 17.1 22.84 9.84 4.88 18.31 2.1 27.45-8.39 7.06-8.08 7.34-15.94-.27-23.53zm-249.1-54.03c.33-4.81 3.66-9.41 5.62-14.11 3.34 4.39 8.41 8.34 9.66 13.27 2.82 11.16 3.76 22.81 5.9 37.15-1.45 3.23-2.82 9.4-6.49 13.5-2.81 3.14-8.51 3.67-12.93 5.36-.95-4.06-2.67-8.11-2.69-12.17-.09-14.34-.06-28.71.93-43zM465.56 736.96c-3.1 3.31-6.74 6.26-9.2 10-7.89 11.97-14.35 25.03-23.26 36.13-7.87 9.8-15.69 7.41-18.27-5.03-2.24-10.79-2.43-22.02-3.53-33.05-.95-9.49 3.52-13.95 12.65-16.03 13.39-3.05 26.54-7.2 39.72-11.12 7.86-2.34 15.48-6.6 13.84-15.93-3.63-20.69-6.98-41.71-13.66-61.5-6.88-20.38-27.3-26.57-46.14-15.93-7.54 4.26-14.12 10.48-20.5 16.49-10.21 9.62-9.94 9.83-17.66-2.45-1.45-2.3-3.24-4.52-5.3-6.26-9.96-8.41-17.59-9.22-29.91-.26-13.69 9.95-27.08 17.71-45.12 16.21-12.07-1-20.03 8.58-26.06 18.06-15.44 24.26-16.7 50.24-5.92 76.41 3.37 8.18 2.05 14.09-.6 21.86-4.03 11.83-7.65 24.57-7.57 36.9.18 26.49 17.31 39.1 42.84 33.67 8.08-1.72 16.03-4.12 24.11-5.86 14.5-3.11 22.11 4.03 20.51 18.96-1.91 17.86-18.66 35.07-36.52 38.37-8.15 1.51-12.62-1.31-14.78-9.05-1.64-5.87-3.06-11.88-5.47-17.44-3.51-8.1-16.68-16.76-23.74-15.55-10.74 1.84-15.23 10.04-17.75 19.65-5.2 19.81 4.61 36.1 25.18 41.44 7.45 1.93 15.17 2.83 22.64 4.72 13.78 3.49 26.42.88 37.59-7.44 28.4-21.13 41.85-48.77 37.21-85.05-3.06-23.89-24.55-49.07-56.73-40.52-4.79 1.27-9.52 2.9-14.39 3.7-1.57.26-3.48-1.6-5.23-2.49 1.25-2.13 2.06-4.89 3.89-6.2 1.52-1.09 4.25-.45 6.43-.65 36.94-3.49 54.72-23.51 52.34-60.6-.92-14.29-4.48-28.39-6.55-42.63-.35-2.44.74-5.09 1.16-7.64 2.06 1.29 4.39 2.29 6.14 3.92 3.48 3.27 6.17 9.12 10.02 9.93 10.58 2.24 9.2 8.71 8.32 16.3-1.59 13.77-2.56 27.6-4.16 45.52 1.95 13.71 3.08 31.57 7.3 48.66 4.92 19.95 21.65 32.07 38.14 30.79 27.43-2.12 53.76-26.61 57.61-54.14.58-4.16-.33-8.96-1.92-12.9-1.72-4.31-5.05-8-7.7-11.97zm-53.75-45.5c1.34-11.53 2.43-22.58 4.07-33.55.35-2.33 2.67-4.36 4.09-6.52 1.6 1.95 4.2 3.71 4.62 5.89 2.11 10.88 4.13 21.83 5.27 32.84 1.08 10.4-2.7 14.91-10.78 14.49-9.81-.5-6.77-8.06-7.27-13.15zm-99.01 44.86c-1.8 6.01-6.36 6.47-8.94.34-8.06-19.18-4.78-38.1 3-56.44 2.17-5.11 6.8-4.39 8.12.66 2.08 7.97 2.75 16.31 4.37 26.76-1.86 8.39-3.57 18.73-6.55 28.68zM1368.12 113.61c1.58 2.77 1.01 6.94 2.85 9.35 1.6 2.1 5.69 4.17 7.93 3.55 13.07-3.62 20.3-22.93 14.61-37.68-5.68-14.74-14.46-18.03-30.28-11.28-2.53 1.08-5.29 1.99-7.39 3.67-7.87 6.29-15.94 7.03-26.08 5.49-17.37-2.63-35.89.57-47.29 14.16-14.2 16.93-29.5 54.96-11.59 82.25 3.97 6.04 4.47 11.17.88 18.32-19.13 38.11 2.64 72.31 44.78 71.57 6.05 0 12.19-.65 18.14.14 12.02 1.6 15.64 6.03 12.73 18.04-2.43 10.04-6.38 19.98-11.26 29.09-5.75 10.73-16.69 9.15-26.59 8.04-10.23-1.14-10.39-9.46-11.84-17.28-1.19-6.4-2.92-13.24-6.44-18.5-2.72-4.06-8.32-7.7-13.12-8.45-7.78-1.22-24.24 11.51-27.22 19.14-4 10.25-.87 20.4 9.29 29.55 2.87 2.58 5.89 5.04 9.07 7.23 44.34 30.54 93.3 13.71 108.93-37.39.81-2.65 1.78-5.25 2.7-7.86 11.83-33.63-9.36-69.51-44.49-74.63-9.22-1.34-18.71-.68-28-1.69-3.89-.42-7.58-2.77-11.37-4.25 3.82-2.03 7.46-4.57 11.5-5.94 3.58-1.21 7.6-1.04 11.4-1.61 21.98-3.29 35.45-15.77 41.49-37.42 5.03-18.03 1.78-35.05-3.09-52.35-.97-3.46 1.49-7.9 2.36-11.88 2.51 2.84 5.54 5.39 7.39 8.62zm-47.91 59.23c-4.89 8.48-9.78 9.21-14.46.91-4.43-7.86-6.53-17.05-10.01-26.66 4.18-11.8 7.18-23.54 12.48-34.11 3.72-7.43 11.56-6.96 13.46.37 5.13 19.78 9.77 40-1.47 59.49zM788.82 533.02c-6.1-15.12-19.11-23.81-35.02-21.4-7.4 1.12-15.22 3.73-21.41 7.86-23.63 15.75-39.08 37.01-41.33 66.58-1.18 15.47-3.23 30.88-5.48 51.89 1.51 10.59 1.1 27.4 6.6 41.94 10.39 27.47 36.23 42.69 63.22 26.01 19.69-12.17 34.86-49.54 28.6-71.86-.76-2.72-3.6-6.55-5.73-6.73-2.37-.2-6.06 2.65-7.36 5.14-2.26 4.34-2.87 9.52-4.64 14.16-3.14 8.25-5.84 16.84-10.3 24.34-2.12 3.55-8.14 7.1-11.91 6.63-3.62-.45-8.5-5.58-9.5-9.52-2.59-10.12-3.61-20.7-4.73-31.15-.82-7.68 3.86-10.22 10.86-11.6 18.63-3.66 31.81-16.85 45.7-28.44 3.1-2.58 5.62-7.31 6.14-11.34 2.26-17.67 3.2-35.38-3.71-52.51zm-35.71 49.97c-5.54 6.11-12.4 11.01-18.73 16.39-.5-6.15-1.9-12.4-1.26-18.43.85-8.11 2.61-16.29 5.32-23.95 1.2-3.39 5.71-5.6 8.72-8.35 2.18 3.32 5.21 6.38 6.31 10.03 1.23 4.08.71 8.7 1.01 14.26-.29 2.68.7 7.77-1.37 10.05z" class="st3"/>
    <path d="M968.85 270.39c-7.94-.54-11.85 4.03-14 11.31-2.51 8.47-5.12 17.01-8.8 25-1.65 3.58-5.87 8-9.14 8.18-2.96.17-7.6-4.3-9.08-7.77-4.1-9.62-7.35-19.67-10.13-29.78-2.44-8.86 1.12-14.67 10.22-17.65 12.55-4.11 24.62-9.77 37.27-13.46 10.77-3.14 14.15-9.91 12.48-19.91-2.92-17.44-6.34-34.81-9.64-52.18-2.75-14.5-10.99-23.86-25.57-27.02-15.85-3.44-27.06 3.07-37.36 15.17-22.7 26.64-25.95 58.98-29.6 91.17 1.24 11.55 1.2 22.88 3.92 33.49 3.27 12.74 7.22 25.87 13.81 37.08 15.61 26.57 50.7 30.24 67.18 6.29 9.45-13.72 14.36-30.9 19.73-47.06 2.51-7.6-3.46-12.32-11.29-12.86zm-42.47-82.63c.36-1.45 3.44-3.51 4.64-3.15 1.53.45 3.22 2.97 3.45 4.78.85 6.51 1.11 13.1 1.59 19.66.11.01.22.01.33.02 0 4.93.01 9.87 0 14.8-.02 9.47-7.39 11.37-14.19 13-1.35.32-5.7-4.24-5.39-5.93 2.72-14.48 6.06-28.86 9.57-43.18zM274.26 486.87c-1.04-8.77-7.87-10-14.32-11.06-6.77-1.12-7.55 4.18-8.91 9.32-2.24 8.44-4.01 17.47-8.4 24.78-7.11 11.83-21.62 10.4-27.23-2.18-2.9-6.5-4.1-13.75-6.13-20.65-2.99-10.13 1.01-15.94 10.9-18.31 10.17-2.44 20.42-4.63 30.45-7.56 20.51-5.99 22.71-9.26 22.26-31.92.59-18.67-4.93-37.32-16.17-53.45-4.97-7.14-13.41-13.82-21.6-16.32-29.32-8.95-56.69 4.97-63.43 42.09-5.28 29.13-5.02 58.58 1.39 87.59 4.5 20.39 13.58 38.64 29.53 52.7 8.7 7.66 18.58 12.19 30.34 8.71 18.32-5.44 43.56-44.8 41.32-63.74zm-62.55-98.23c.38-2.94 4.35-5.41 6.67-8.1 2.32 2.67 6.13 5.05 6.68 8.05 1.49 8.1 1.59 16.46 2.05 22.3 0 9.08.05 15.71-.01 22.35-.07 7.36-5.64 10.13-10.99 9.26-3.26-.54-8.18-6.13-8.11-9.36.32-14.87 1.81-29.74 3.71-44.5z" class="st3"/>
    <path d="M174.15 541.49c-4.5-2.98-9.98-6.2-12.12-10.7-4.66-9.82-8.37-20.33-10.83-30.94-4.2-18.16-2.75-37.68-14.54-54.03-1.81-2.5-.12-10.14 2.53-12.92 21.26-22.38 20.3-49.5 15.81-76.65-4.18-25.28-19.93-41.86-44.92-47.58-15.96-3.65-32.42-5.1-48.65-7.54-.11.82-.21 1.65-.32 2.47-3.3 0-6.61.07-9.91-.02-3.85-.1-7.74-.74-11.55-.44-10.96.87-13.75 7.7-8.01 16.98 3.89 6.3 8.64 13.31 9.09 20.27 1.23 18.77 2 37.86.01 56.51-4.47 42.01-8.58 83.83-3.37 126.11 1.24 10.04 2.95 21.11-5.27 30.16-.8.89 1.6 7.03 2.82 7.13 18.58 1.64 37.21 3 55.85 3.5 2.62.07 7.12-4.48 7.53-7.35.37-2.62-3.65-5.86-5.71-8.84-3.91-5.66-10.64-11.07-11.16-17.03-1.54-17.58-.83-35.38-.52-53.08.14-7.84 5.45-9.86 12.56-9.51 8.2.41 11.82 6.01 13.53 12.53 2.66 10.16 4.24 20.61 6.09 30.98 2.88 16.22 9.38 30.8 20.29 43 10.67 11.93 30.3 13.44 42.08 3.96 8.41-6.76 7.9-10.88-1.31-16.97zm-69.92-118.94c-1.83 2.66-4.49 4.93-7.18 6.76-10.86 7.34-15.34 5.03-16.23-8.52-.94-14.38-1.49-28.79-2.21-43.19h.75c0-13.85-.34-27.71.27-41.53.13-2.92 3.17-7.41 5.79-8.24 12.5-3.98 27.59 4.32 31.69 17.33 8.79 27.9 3.48 53.67-12.88 77.39zM860.08 222.01c-4.36-25.91-17.87-35.4-44.26-33.28-12.73 1.02-14.04.01-15.85-12.75-.47-3.29-.6-6.63-.79-9.96-1.72-29.31-20.2-32.45-44.56-28.54-3.53.57-8.25 4.91-9 8.29-.68 3.03 2.47 9.01 5.45 10.4 9.35 4.36 10.24 11.75 10.54 20.55 1.17 34.37 3.38 68.72 3.97 103.1.44 26.03-1.01 52.1-1.6 78.15-.13 5.54-1.37 11.39-.01 16.54 1.55 5.89 4.1 13.83 8.59 16.09 7.52 3.79 11.75-3.89 14.02-10.2 3.76-10.47 9.15-10.59 17.4-4.81 9.24 6.46 18.66 4.76 27.84-1.12 19.56-12.52 33.61-28.63 35.11-53.18.54-8.85.97-17.71 1.45-26.56.43-.08.86-.17 1.29-.25-3.16-24.17-5.56-48.46-9.59-72.47zM822.6 331.22c-.81 4.28-4.65 7.97-7.11 11.93-2.56-3.81-6.66-7.34-7.4-11.49-2.56-14.18-4.72-28.52-5.57-42.89-1.11-18.82-.91-37.73-1.11-56.6-.07-6.4.95-13.38 8.87-13.5 7.69-.12 9.27 6.72 9.82 13.08 1.98 22.66 3.84 45.33 5.91 70-.91 8.58-1.45 19.16-3.41 29.47zM240.1 699.81c-7.05-25.23-24.9-36.02-48.05-38.21-19.28-1.83-36.25 13.13-43.83 36.11-7.66 23.21-14.36 46.64-13.98 71.68 1.53 15.94 1.37 32.29 5.01 47.73 4.79 20.27 18.66 33.92 39.39 38.04 20.36 4.05 34.55-5.43 45.22-22.83 25.65-41.83 29.33-85.7 16.24-132.52zm-39.21 104.42c-1.6 7.75-8.53 14.39-13.05 21.53-3.35-7.02-7.87-13.73-9.85-21.12-6.95-26.04-8.54-52.54-2.16-78.93 2.71-11.19 7.11-22.01 11.37-32.74 1.06-2.68 4.53-4.38 6.89-6.54 2.11 2.92 5.39 5.57 6.1 8.8 2.02 9.16 3.7 18.52 4.17 27.87.58 11.59-.18 23.25-.37 34.88.48.02.97.05 1.45.07-1.34 15.43-1.45 31.12-4.55 46.18z" class="st3"/>
    <path d="M947.46 548.8c.32-18.42.45-34.14.92-49.88.28-9.46 1.16-18.97 1.63-28.46.27-5.37.05-10.72.41-16.08.7-10.44 5.27-15.65 13.39-16.19 7.37-.49 14.76-1.14 22.13-2.2 12.27-1.76 24.22-.95 35.94 1.75 7.88 1.82 14.06 7.56 20.39 12.72 9.8 7.97 15.37 19.97 19.86 33.59 4.34 13.16 4.73 27.19 5.78 41.21.14 1.84.01 3.81-.28 5.68-2.45 15.48-5.77 30.87-12.85 44.62-5.33 10.35-10.96 20.72-18.38 29.24-1.5 1.72-3.22 3.33-5.03 4.36-10.22 5.85-20.68 10.16-31.48 13.39-11.31 3.39-22.51 3.66-33.71 4.68-15.01 1.37-18.1-6.48-18.92-21.05-.48-8.56-.17-17.29-.12-25.96.04-5.69.33-11.4.38-17.09.06-5.68-.04-11.35-.06-14.33zm22.32 55.16c10.22-1.46 19.81-2.12 29.29-4.39 7.94-1.9 15.25-5.86 21.27-14.77 6.8-10.06 11.49-21.13 15.51-32.66 2.2-6.31 3.67-13.28 4.15-19.92 1.1-15.38-1.16-29.97-5.15-43.82-4.2-14.58-12.18-24.96-24.61-27.91-11.44-2.72-23.5-1.7-35.47-.02-.55.08-1.1.84-1.54 1.19-1.14 47.44-2.29 94.65-3.45 142.3z" style="fill:#ffce00;stroke:#ffce00;stroke-miterlimit:10"/>
    <path d="M1155.33 551.11c3.65 5.02 7.1 9.77 10.55 14.5-6.57 5.69-13.17 5-23.15-2.35-5.27 1.9-9.63 5.89-14.37 9.1-9.08 6.15-18.53 10.36-28.41 7.78-4.69-1.23-9.16-3.39-13.05-6.01-3.28-2.2-2.89-6.84-3.19-10.74-.8-10.3 2.08-20.46 6.91-30.45 2.96-6.13 6.15-12.19 9.27-18.36-2.89-6.45-5.91-12.8-7.14-20.31-2.21-13.44 1.04-25.89 9.95-38.09.57-.78 1.46-1.63 1.53-2.39.35-3.93 3.3-5.99 6.4-6.99 7.51-2.43 15.13-5.5 22.69-3.99 13.81 2.75 23.37 10.99 22.76 25.86-.55 13.22-6.6 25.17-19.93 33.13-3.41 2.04-6.82 4.08-10.15 6.28-4.47 2.96-4.67 4.56-1.89 7.84 5.03 5.91 9.83 12 14.77 17.98 2.35 2.84 4.77 5.62 7.54 8.87 5.89-6.14 10.76-12.2 14.51-19.56 1.19 3.29 2.93 5.88 3 8.8.1 4.3-1.08 8.77-4.27 12.77-1.59 1.99-2.88 4.19-4.33 6.33zm-42.28-50.62c1.19-.44 1.91-.49 2.25-.86 4.74-5.22 10.78-8.15 16.76-11.25 3.44-1.78 6.17-4.51 7.8-8.03 4.99-10.76 1.88-23.48-10.67-27.07-2.27-.65-5.03-.71-6.74 1.8-4.96 7.27-11.39 14.05-12.34 22.87-.84 7.9-.84 15.6 2.94 22.54zm20.55 54.53c-7.73-9.09-15-17.63-22.65-26.63-6.71 9.41-10.96 18.59-11.77 28.59-.17 2.1-.28 4.86.89 6.01 1.96 1.92 4.75 3.72 7.6 3.92 6.02.4 12.26-.47 17.82-5.1 2.6-2.17 5.19-4.34 8.11-6.79z" style="fill:#ffce00;stroke:#ffce00;stroke-width:.5;stroke-miterlimit:10"/>
    <path d="M1284.55 439.67c7.84 5.98 6.34 16.74 7.73 25.89 2.02 13.21-.08 26.54-2.79 39.89-.84 4.14-2.11 7.84-4.82 11.13-2.43 2.96-3.98 7-6.18 10.31-8.19 12.33-18.75 19.4-30.57 21.32-17.93 2.92-34.61-.86-49.41-11.76-1.8-1.33-3.28-3.36-4.7-5.32-2.97-4.13-6.22-8.07-8.57-12.78-2.14-4.29-3.59-9.3-4.7-14.3-1.55-6.97-2.95-14.1-3.63-21.38-1.9-20.36.86-40.48 7.45-60.57 3.78-11.52 8.27-22.33 14.13-32.64 3.99-7.01 9.52-11.14 14.78-15.6 4.78-4.05 10.3-6.64 15.6-9.48 1.89-1.01 4.1-1.06 6.15-1.19 4.92-.3 9.83-.16 14.75-.62 8.57-.8 15.57 2.73 21.87 8.77 2.39 2.3 5.66 3.05 7.13 6.99 1.39 3.72 3.64 6.85 4.95 10.61 1.63 4.67.71 8.24-1.97 10.27-4.17 3.17-8.1 2.73-10.33-1.37-4.15-7.63-9.59-13.06-16.43-16.98-6.15-3.53-12.48-3.17-19.11-2-1.14.2-2.33 1.12-3.36 1.98-1.07.88-1.88 2.32-2.97 3.13-6.9 5.14-12.14 12.04-15.83 21.04-4.8 11.72-10.17 23.14-14.84 34.92-1.46 3.69-1.32 8.15-2.18 12.21-2.15 10.14-2.53 20.31-1.95 30.2 1.06 18.18 6.45 33.08 20.21 40.44 1.62.87 3.31 1.76 5.08 2.04 10.77 1.71 21.38 4.35 32.71 2.2 5.41-1.03 10.1-3.71 14.44-8 1.16-1.15 2.48-2.67 2.94-4.27 2.08-7.27 4.7-14.6 5.58-21.98 1.37-11.55 1.48-23.16 2.13-34.87-4.81.13-9.33.52-13.77.3-6.88-.35-13.71-1.13-20.57-1.73-.4-.04-.79-.18-1.18-.29-4.72-1.4-6.37-3.53-5.87-7.57.52-4.18 4.93-9.02 8.75-9.12 6.98-.19 13.94-.1 20.9-.06 6.19.03 12.33.15 18.45.24z" style="fill:#ffce00;stroke:#ffce00;stroke-width:4;stroke-miterlimit:10"/>
  </g>
</svg>
