<?xml version="1.0" encoding="utf-8"?>
<!-- Generator: Adobe Illustrator 27.4.1, SVG Export Plug-In . SVG Version: 6.00 Build 0)  -->
<svg version="1.1" xmlns="http://www.w3.org/2000/svg" xmlns:xlink="http://www.w3.org/1999/xlink" x="0px" y="0px"
	 viewBox="0 0 85.04 76.84" style="enable-background:new 0 0 85.04 76.84;" xml:space="preserve">
<style type="text/css">
	.st0{fill:#E4E15F;}
	.st1{fill:#D59D6C;}
	.st2{fill:#7D6F5F;}
</style>
<g id="Layer_1">
	<g>
		<path class="st0" d="M68.62,49.64c-5.46,0.38-2.38-6.25-6.19-6.55c-7.2,10.01-11.49-2.1-16.79-5.61
			c-7.8,3.14-15.05,5.34-23.17,2.78c-2.93,5.99-14.07,8.35-16.16,0.21c-5.11-4.63-4.21-7.45-1.81-12.44c1-3.4-0.23-8.38,0.66-11.65
			C8.12,5.75,31.55-4.52,38.4,9.68c10.95,2.03,15.19-11.21,24.46,8.04c1.6,4.23,8.87,1.32,11.1,5.26
			C85.09,30.62,83.03,48.51,68.62,49.64z"/>
	</g>
</g>
<g id="Layer_3">
	<path class="st1" d="M15.25,34.3c3.78-0.8,3.4,5.75,4.83-4.72c1.52,5.2,1.87,3.74,5.03-0.83c-8.71,10.1,0.47,36.82-5.39,43.6
		C17.57,62.44,24.09,40.51,15.25,34.3z"/>
	<path class="st1" d="M46.99,19.28c2.76,11.55,4.52-1.8,3.96-5.74C50.77,28.5,44.03,51.02,47.4,69.2c0.14,1.42-0.19,3.59-1.66,2.9
		c-0.02-41.03,0.84-32.17-4.75-46.37c-0.43-0.43,0.09-1.12,0.5-0.47c1.98,3.21,1.16-6.67,2.34-3.27c0.22,1.76-2.75,6.98,1.19,9.54
		C49.87,29.3,46.32,19.47,46.99,19.28z"/>
	<path class="st1" d="M72.06,39.85c0.15,2.45-3.86,6.73,2.68,1.67c0.76,2.26-6.68,3.58-8.28,6.04c-1.14,4.49,1.32,32.56-1.85,21.73
		c-2.26,5.97,1.08-19.42-2.88-23.54c-1.33-2.58-5.51-4.17-3.97-7.96c2.11,3.84,0.46,4.64,0.1,0.36c-0.98,5.08,4.79,4.58,2.2-0.35
		c1.71,12.02,7.92,10.98,6.08-1.25c1.66,3.36-0.32,5.66,2.95,1.83C63.67,47.03,67.83,48.91,72.06,39.85z"/>
</g>
<g id="Layer_2">
	<path class="st2" d="M53.45,71.98c0.39-0.22,0.56,0.2,0.28,0.48C53.67,72.36,53.62,72.27,53.45,71.98z"/>
	<path class="st2" d="M33.13,71.26c-0.06,0.24-0.12,0.46-0.17,0.67C32.71,71.63,32.84,70.54,33.13,71.26z"/>
	<path class="st2" d="M55.26,72.29c-0.07,0.2-0.14,0.38-0.21,0.56C54.72,72.58,55.08,71.37,55.26,72.29z"/>
	<path class="st2" d="M51.11,72.55c0.05-0.68,0.15-0.35,0.3,0.06C51.35,72.98,51.19,72.76,51.11,72.55z"/>
	<path class="st2" d="M38.8,71.78c0.18-0.52,0.24-0.11,0.37,0.18C39.04,72.27,38.92,71.95,38.8,71.78z"/>
	<path class="st2" d="M49.2,72.69c-0.12,0.18-0.24,0.49-0.37,0.19C48.96,72.59,49.01,72.18,49.2,72.69z"/>
	<path class="st2" d="M34.46,71.23c-0.16,0.32-0.26,0.37-0.34,0.02C34.18,70.96,34.3,70.98,34.46,71.23z"/>
	<path class="st1" d="M52.32,70.27c-0.03-0.07-0.06-0.15-0.08-0.22C52.27,70.12,52.29,70.2,52.32,70.27z"/>
	<path class="st1" d="M16.88,22.09c1,0.28,1.97,0.54,2.6,1.43C18.6,23.09,17.63,22.49,16.88,22.09z"/>
	<path class="st2" d="M61.32,40.31c0.01,11.09,8.47,2.27,3.86-4.12c5.64,9.15-5.06,15.68-4.69,1.1
		C61.35,38.13,61.45,39.19,61.32,40.31z"/>
	<path class="st2" d="M67.67,41.99c-4.1,9.65,3.13-0.22,4.39-2.14c-1.73,2.71-2.78,6.48-6.46,6.83
		C66.02,43.53,71.52,34.39,67.67,41.99z"/>
	<path class="st2" d="M50.74,11.89c2.16,4.43-2.69,18.86-3.49,7.62c0.14,4.27,2.5,6.11,3.63-1.57
		C51.84,16.15,49.6,13.37,50.74,11.89z"/>
	<path class="st2" d="M45.55,31.63c3.39-3.61,1.03-8.31,1.07-12.52C47.21,22.1,49.35,29.05,45.55,31.63z"/>
	<path class="st2" d="M42.98,27.32c-0.45,2.24,1.54,3.26,2.28,4.82C39.32,29,46.07,16.76,42.98,27.32z"/>
	<path class="st2" d="M59.15,41.31c2.28,1.37,0.92-2.9,0.41-3.64c1.41,0.54,1.39,3.12,0.51,4.26c-1.64,0.37-3.1-2.65-2.02-3.89
		C57.75,39.07,58.08,41.04,59.15,41.31z"/>
	<path class="st2" d="M41.95,37.04c-1.95-0.9-4.62-4.34-5.46-6.4C38.01,32.75,39.96,35.34,41.95,37.04z"/>
	<path class="st2" d="M74.74,41.52c-2.99,3.34-5.07,2.32-2.28-1.26C70.94,43.99,71.33,43.63,74.74,41.52z"/>
	<path class="st2" d="M40.75,24.19c2.83,4.28,1.38-1.83,2.6-3.43C43.08,23.02,42.89,29.05,40.75,24.19z"/>
	<path class="st2" d="M68.73,38.08c-1.47,4.61-1.91,0.55-2.52-1.73c0.81,0.51,0.76,1.54,0.93,2.37
		C67.23,42.89,68.66,36.43,68.73,38.08z"/>
	<path class="st1" d="M46.6,21.12c0.01,0.08,0.01,0.16,0.02,0.24C46.61,21.28,46.6,21.2,46.6,21.12z"/>
	<path class="st1" d="M67.13,38.69c-0.01-0.05-0.03-0.1-0.04-0.14C67.1,38.6,67.12,38.64,67.13,38.69z"/>
	<path class="st1" d="M50.88,17.91c0.01,0.01,0,0.02-0.01,0.03C50.87,17.92,50.87,17.91,50.88,17.91z"/>
	<path class="st0" d="M51.94,15.49c0.19,1.34-0.12,2.63-0.28,3.95C51.76,18.12,51.85,16.8,51.94,15.49z"/>
	<path class="st2" d="M59.6,42.81C59.6,42.81,59.6,42.81,59.6,42.81C59.6,42.81,59.6,42.81,59.6,42.81z"/>
	<path class="st1" d="M20.25,29.24c0.44-1.84-0.34-5.05,1.46-4.93C20.99,25.66,21.16,28.4,20.25,29.24z"/>
	<path class="st1" d="M24.22,19.95c-0.16,1.89-1.35,3.18-2.38,4.22C22.21,22.58,23.97,21.54,24.22,19.95z"/>
	<path class="st1" d="M25.37,28.53c-0.04,0.05-0.06,0.2-0.12,0.18C25.29,28.64,25.34,28.59,25.37,28.53z"/>
	<path class="st1" d="M27.14,26.53c0.01-0.02,0.01-0.08,0.04-0.05C27.17,26.49,27.16,26.51,27.14,26.53z"/>
	<path class="st1" d="M14.34,33.38c0.01,0.01,0.03,0.01,0.01,0.02C14.35,33.41,14.34,33.38,14.34,33.38z"/>
	<path class="st2" d="M61.34,72.58c0.39-0.4-0.2-0.88,0.24-1.23C61.9,71.88,62.29,73.55,61.34,72.58z"/>
	<path class="st2" d="M26.39,71.9c0.22,0.86,0.35,1.33-0.16,1.92C25.69,73.46,26.32,72.76,26.39,71.9z"/>
	<path class="st2" d="M64.05,71.89c0.11-0.62,0.26-2.99,0.56-2.29C64.13,70.14,64.8,72.38,64.05,71.89z"/>
	<path class="st2" d="M58.38,72.45c1.03-0.42,3.35-0.27,1.45-0.1C59.15,72.75,58.98,73.39,58.38,72.45z"/>
	<path class="st2" d="M27.02,71.13c0.88-0.25,3.31,0.58,1.86,0.9C28.42,70.93,27.73,71.88,27.02,71.13z"/>
	<path class="st2" d="M64.86,71.9c1.1-1.94,2.07,2.5,0.94,0.12C65.44,72.15,64.96,72.48,64.86,71.9z"/>
	<path class="st2" d="M23.35,69.98c0.45,0.83,1.02,2.53,0.38,3.04C23.31,72.38,23.56,70.95,23.35,69.98z"/>
	<path class="st2" d="M63.48,71.29c-0.37-0.07,0.25,1.04-0.31,1.11C62.5,71.8,62.44,68.38,63.48,71.29z"/>
	<path class="st2" d="M55.91,72.75c0.5-0.84-0.16-1.76,0.37-2.42C56.63,70.57,56.57,73.92,55.91,72.75z"/>
	<path class="st2" d="M52.32,70.27c0.13,0.75,0.23,2.11-0.23,2.59C51.94,72.34,51.75,69.23,52.32,70.27z"/>
	<path class="st2" d="M25.05,73.39c-0.81-0.27-0.19-0.66-0.27-0.97C24.87,69.65,25.46,71.87,25.05,73.39z"/>
	<path class="st2" d="M31.7,72.43c-0.19-0.82-0.37-3.49,0.27-2.62C31.43,70.77,32.48,71.58,31.7,72.43z"/>
	<path class="st2" d="M35.6,71.76c0.09-0.61-0.27-3.14,0.37-2.39C35.83,69.94,36.32,72.18,35.6,71.76z"/>
	<path class="st2" d="M50.45,38.1c-0.47,2.7,6.36,10.77,5.27,8.91C51.8,45.38,51.32,41.73,50.45,38.1z"/>
	<path class="st2" d="M70.26,72.28c-2.29,1.01-1.79-2.37-1.32-3.5C69.5,69.84,68.28,71.82,70.26,72.28z"/>
	<path class="st2" d="M70.23,72.24c0.71,0.17,3.48-0.42,3.17,1.42C72.18,71.43,72.32,73.99,70.23,72.24z"/>
	<path class="st2" d="M17.74,73.19c-1.2,0.39-2.51,0.92-3.38,1.15c0.52-0.3,0.44-1.77,1.61-0.84
		C16.68,74.22,17.07,72.31,17.74,73.19z"/>
	<path class="st2" d="M40.98,25.74c8,13.68,3.52,31.26,4.38,46.44C44.1,56.43,48.38,40.05,40.98,25.74z"/>
	<path class="st2" d="M55.68,9.05c3.47,4.88,8.67,11.48,2.75,16.52c-2.07,0.99,0.49,3.92-2.16,4.37c-2.16,0.48-0.14,2.26-2.95,2.91
		c-3.67,1.73,0.7,3.46-3.92,3.61c4.16-0.96,0.04-2.21,3.8-3.85c2.82-0.94,0.58-2.45,2.68-2.84c3.03-0.53-0.12-3.28,2.45-4.48
		c5.46-5.68,0.68-15.74-7.39-17.46C52.5,8.4,54.32,8.05,55.68,9.05z"/>
	<path class="st2" d="M59.84,42.81c6.22,7.47,4.16,18.95,3.95,28.34c-0.57-8.72,1.56-17.6-2.15-25.39
		c-0.99-2.07-6.17-5.11-3.64-8.42C57.38,39.38,57.74,42.07,59.84,42.81z"/>
	<path class="st2" d="M80.17,39.32c0.49,4.62-4.62,10.28-9.46,9.76c6.62-1.11,5.81-3.14,9.34-7.32c-0.02-2.56-1.46-5.95,0.52-8.5
		C79.77,35.32,79.36,37.46,80.17,39.32z"/>
	<path class="st2" d="M24.98,2.58c-5.13,2.16-6.37,0.06-7.99,4.99c-2.01-0.92-2.18,0.16-3.22,2.1c-0.92-2.79,2.66-2.15,3.52-2.9
		C17.9,1.46,22.25,4.17,24.98,2.58z"/>
	<path class="st2" d="M18.93,35.65c-0.08,2.01-1.14-1.96-4.08-1.92c0.84,1.54-5.44-2.21-1.75-2.06c1.76,0.86,3.76,3.46,5.61,2.74
		c1.01-4.2,3.49-10.37-2.19-12.21c4.78,1.4,1.18,0.89,0.41-0.55c4.97,3.52,5.78,1.24,7.7-3.6c0.64,4.81-5.87,9.56-3.23,14.93
		c2.43-1.52,4.55-7.84,6.64-7.42c-10.29,12.68-5.82,29.89-6.04,45.12c0.06,8.92-3.56-33.46,2.73-41.22
		C18.28,40.63,21.99,23.3,18.93,35.65z M20.25,29.24c0.91-0.84,0.73-3.57,1.46-4.93C19.91,24.19,20.69,27.4,20.25,29.24z
		 M24.22,19.95c-0.24,1.58-2.01,2.63-2.38,4.22C22.87,23.13,24.06,21.84,24.22,19.95z"/>
	<path class="st2" d="M19.51,59.58c-1.33,3.99,2.78,13.47-1.77,13.61c3.11-7.94,1.62-24.73,0.17-36.04
		c0.09-1.82-1.84-1.86-2.67-2.85C23.1,38.75,18.14,51.88,19.51,59.58z"/>
	<path class="st2" d="M8.73,10.58c-9.97,12.09-2.85,8.7-1.04,16.57c-10.4,3.47,0.99,22.87,8.89,14.37
		c-1.15,4.94-8.33,1.84-11.08-0.31c-1.62-1.64,0.15-4.07-1.13-5.95c-0.99-0.81-2.23-2.54-1.85-3.97c5.84-5.95,6.38-3.92,0.92-9.95
		C2.59,17.22,8.04,7.7,12.75,9.11C13.57,10.42,11.04,7.39,8.73,10.58z"/>
	<path class="st2" d="M35.94,9.52c0.75,3.03,1.86,1.57,3.61,4.08c-0.26-1.6,3.17-3.77,2.44-2.66c-5.33,2.19-0.12,7.79-1.57,11.27
		c-2.29,2.73,1.29,6.68-4.74,6.3c-6.65,2.59,15.72,9.98-9.76,13.28c4.8-1.1,16.32-3.08,10.25-9.23c-0.82-1.19-4.03-0.89-2.48-2.87
		c9.69-5.51,3.08,0.85,6.69-9.44c-1.99-7.83-6.11-16.1-15.21-17.59C30.15,2.3,33.55,5.31,35.94,9.52z"/>
	<path class="st2" d="M69.61,22.26c4.6,1.63,8.23,4.8,10.68,9.12c-2.92-3.96-7.13-9.51-12.83-8.53
		C66.24,22.71,69.27,22.29,69.61,22.26z"/>
	<path class="st2" d="M66.3,71.73c1.18-10.93-5.6-25.63,8.37-29.48c-0.62,1.67-3.05,1.15-4.09,2.47c0,0,0,0,0,0
		C61.22,49.56,69.1,63.59,66.3,71.73z"/>
	<path class="st2" d="M51.74,15.85c0.4-10.43,0.26,8.62-2.92,12.51c-3.4,13.97-1.06,29.11-1.49,43.05
		C45.57,52.6,46.79,33.83,51.74,15.85z"/>
</g>
</svg>
