<?xml version="1.0" encoding="UTF-8"?>
<svg id="rt" xmlns="http://www.w3.org/2000/svg" viewBox="0 0 1385.51 917.4">
  <defs>
    <style>
      .cls-1 {
        fill: #ffce00;
        stroke: #fad71e;
        stroke-miterlimit: 10;
      }
    </style>
  </defs>
  <path class="cls-1" d="m325.53,403.67c1.89-29.36,3.55-53.1,4.8-76.86.18-3.46-1.64-7.03-2.53-10.54-3.01,1.94-7.37,3.19-8.76,5.96-3.16,6.33-6.2,13.25-6.93,20.18-3.62,34.18-6.73,68.43-9.31,102.71-.42,5.62,1.87,11.9,4.34,17.2,5.36,11.53,4.44,15.8-7.2,20.17-9.27,3.47-18.73,6.92-28.41,8.64-11.99,2.13-17.08-4.68-11.34-15.23,6.67-12.27,7.96-25.02,7.83-38.55-.28-29.96-.05-59.92.08-89.88.04-9.53-.45-18.16-7.85-26.04-7.05-7.51-3.89-14.79,6.14-16.7,4.77-.91,10.51-1.68,14.68.13,13.54,5.86,23.06,1.73,33.25-8.11,11.9-11.49,25.87-18.9,43.39-8.88,2.75,1.57,9.56-2.76,13.82-5.44,9.12-5.73,16.29-14.85,29.36-11.77,14.92,3.52,24.34,12.13,26.77,29.55,1.91,13.68,1.47,27.68,2.83,41.46,2.45,24.75,5.19,49.49,8.42,74.15.84,6.44,3.47,12.79,6.06,18.83,4.49,10.46,2.23,16.04-8.69,19.49-13.41,4.24-31.3-4.82-36.48-21.34-4.05-12.94-5.58-27.1-5.73-40.75-.26-24.38,1.39-48.78,2.19-73.18.09-2.76.56-5.82-.4-8.23-1.34-3.38-3.43-8.35-5.99-8.89-3.57-.76-10.32.88-11.39,3.37-3.58,8.32-7.06,17.44-7.28,26.33-.64,26.51-.35,53.09.88,79.58.63,13.6,3.36,27.22,6.38,40.54,1.79,7.9,1.27,13.59-7.15,15.3-9.68,1.97-19.57,3.76-29.4,3.93-11.82.2-16.66-6.24-16.48-17.79.29-18.27.08-36.54.08-49.33Z"/>
  <path class="cls-1" d="m1130.12,150.03c0-18.86,0-37.71,0-56.57,0-8.32.59-16.58-7.68-22.44-1.23-.87-.06-8.37,2.17-10.45,7.03-6.56,15.97-7.65,24.67-3.67,8.43,3.85,14.95,3.3,22.54-2.93,12.13-9.95,26.28-14.74,41.43-6.44,14.97,8.21,21.07,22.15,21.72,38.61,1.23,31.04,1.71,62.12,3.39,93.14.39,7.23,3.14,14.96,6.84,21.24,6.51,11.02,4.71,18.28-7.52,22.76-19.04,6.97-38.7-5.71-41.38-28.15-2.43-20.35-2.87-40.94-4.3-61.41-1.2-17.15-2.32-34.32-4.11-51.41-.33-3.11-3.69-5.9-5.65-8.83-2.61,1.81-6.76,3.11-7.55,5.53-2.7,8.24-5.84,16.86-5.91,25.36-.26,34.9.43,69.81,1.12,104.71.1,4.81,1.37,9.97,3.48,14.27,4.39,8.95.06,13.13-7.65,13.85-10.92,1.02-21.99.43-32.99.61-3.75.06-7.75-.36-11.21.76-14.55,4.69-28.86,10.15-43.45,14.66-3.17.98-8.26.39-10.43-1.66-1.54-1.46.01-6.66.75-10.06,1.04-4.77,3.63-9.4,3.76-14.14,1.08-38.82,1.72-77.66,2.54-116.49.2-9.58-.27-18.48-7.94-26.03-6.6-6.49-3.11-11.62,4.33-15.31,19.23-9.53,36.36-1.85,38.93,19.75,2.08,17.49.38,35.42.74,53.15.46,22.71.54,45.47,2.42,68.08.55,6.64,7.2,18.48,10.07,18.19,10.24-1.04,7.52-11.53,7.67-18.74.42-19.97.14-39.95.14-59.93-.31,0-.62,0-.93,0Z"/>
  <path class="cls-1" d="m662.89,640.44c0,13.88-.41,27.77.21,41.62.23,5.26,1.48,11.54,4.63,15.38,6.18,7.55,5.5,14.21.24,21-5.64,7.28-13.06,9.55-22.1,6.51-16.92-5.69-28.49-20.46-29.14-40.39-.75-23.3-.01-46.64-.26-69.96-.07-6.02-.44-12.39-2.43-17.95-2.74-7.64-9.18-8.1-13.26-1.04-2.67,4.62-4.67,10.27-4.9,15.56-1.41,31.59-2.28,63.21-3.2,94.82-.28,9.53.52,18.47,8.02,26.11,5.45,5.56,5.14,12.88-2.91,16.33-11.11,4.77-22.51,9.32-34.21,12.15-11.88,2.87-14.89-1.9-11.83-13.49,2.65-10.03,5.31-20.49,5.2-30.73-.35-32.17-2.31-64.32-3.05-96.49-.61-26.07-.45-52.15-.47-78.23,0-8.49-.19-16.19-8.5-21.9-7.28-5-2.9-9.06,2.94-12,20.18-10.15,44.06.89,49.45,23,.79,3.23,1.45,6.53,1.7,9.84.67,8.63,5.44,11.51,13.44,10.25,1.63-.26,3.27-.51,4.91-.71,30.29-3.67,42.78,5.4,45.34,35.51,1.54,18.14.28,36.53.28,54.81-.03,0-.06,0-.09,0Z"/>
  <path class="cls-1" d="m54.73,732.28c0-31.02.13-62.04-.2-93.06-.03-3.08-2.79-6.13-4.29-9.19-2.16,2.77-4.55,5.38-6.43,8.33-6.45,10.07-11.66,21.19-19.36,30.15-8.38,9.76-21.31,5.93-22.93-6.63-1.55-11.97-1.21-24.4.15-36.41.46-4.07,6.03-9.77,10.23-10.83,38.6-9.77,77.93-14.17,117.75-12.97,14.23.43,17.37,4.4,16.17,18.75-.84,9.93-2.02,19.89-3.99,29.64-.88,4.33-4.1,8.17-6.26,12.23-4.9-3.03-11.06-5.09-14.37-9.37-3.53-4.56-3.78-11.54-6.58-16.87-1.98-3.75-5.82-6.51-8.84-9.71-1.59,3.77-4.48,7.51-4.56,11.31-.89,42.12-1.51,84.24-1.83,126.36-.14,18.84.64,37.69.86,56.53.1,8.02,1.03,14.34,9.66,19.04,9.36,5.1,8.17,14.76-2.03,18.54-18.67,6.92-37.93,6.56-56.44-.81-8.79-3.5-9.71-10.15-1.83-16.34,7.45-5.85,7.41-12.71,7.37-20.59-.15-29.37-.06-58.75-.06-88.12-.73,0-1.45,0-2.18,0Z"/>
  <path class="cls-1" d="m800.86,500.5c10.65,2.31,17.89-2.57,25.05-9.65,10.89-10.77,23.58-18.29,39.93-15.75,16.93,2.63,26.02,15.38,23.94,33.71-1.92,16.83-17.4,31.07-32.23,29.63-10.39-1.01-13.61-5.61-14.32-19.68-.12-2.38-1.52-4.69-2.33-7.03-2.21,1.39-5.38,2.27-6.42,4.28-1.68,3.25-2.64,7.23-2.72,10.92-.6,29.87-.93,59.74-1.33,89.62-.09,6.65-.33,13.31-.15,19.95.18,6.85,1.25,12.86,9.16,15.93,3.18,1.24,6.99,6.42,6.74,9.5-.26,3.18-4.59,7.5-8.03,8.68-14.59,4.98-29.4,9.41-44.37,13.06-4.2,1.02-10.14-.04-13.45-2.57-1.83-1.4-.28-7.9.47-11.96.99-5.39,3.75-10.62,3.92-15.98,1.25-38.79,2.28-77.58,2.69-116.39.06-5.47-2.55-11.77-5.81-16.31-7.94-11.06-6.65-16.32,6.37-18.96,4.27-.87,8.75-.7,12.9-.99Z"/>
  <path class="cls-1" d="m546.82,729.37c-1.67,5.9-4.18,14.88-6.74,23.86-4.12,14.41-15.19,20.14-28.54,21.18-12.83,1-23.31-6.43-27.84-17.32-6.28-15.09-11.1-31.34-13.16-47.53-2.85-22.45-2.89-45.29-3.43-67.99-.21-8.93-1.76-15.26-10.43-20.39-11.75-6.96-11.31-14.83.65-20.18,7.39-3.3,9.35-8.12,10.37-15.14,1.03-7.08,2.02-14.57,5.12-20.83,3.04-6.13,7.89-12.1,13.41-16.05,9.61-6.87,16.27-4.33,20.39,6.86,1.87,5.08,2.74,10.76,2.91,16.21.32,9.99,3.07,16.37,14.74,13.73,2.09-.47,5-1,6.43.04,3.3,2.39,8.3,5.78,8.24,8.67-.08,3.91-3.92,10.8-6.73,11.11-23.68,2.64-22.98,19.29-22.15,36.53,1.35,28.16,2.54,56.33,3.82,84.5.08,1.66-.08,3.54.64,4.91,2.12,4.1,4.62,7.99,6.98,11.97,1.54-3.86,3.43-7.62,4.54-11.6,1.48-5.32,1.38-11.31,3.8-16.07,1.9-3.74,6.58-6.06,10.03-9.01,2.1,3.61,4.61,7.05,6.14,10.88.97,2.43.48,5.46.84,11.66Z"/>
  <path class="cls-1" d="m1015.65,163.59c1.31,21.03,2.51,42.07,3.98,63.09.75,10.66,3.11,20.65,10.92,28.9,4.58,4.84,6.47,10.75-1.54,14.92-16.6,8.65-34.38,11.58-52.81,10.4-7.76-.5-11.09-4.12-5.93-12.02,9.2-14.08,10.63-29.94,10.34-46.34-.57-32.19-.3-64.41-1.2-96.59-.18-6.6-2.98-13.65-6.28-19.51-4.36-7.75-3.59-12.34,5.15-13.76,4.66-.76,10.23-.43,14.43,1.51,8.63,3.99,14.91,1.73,20.29-5.1,9.65-12.25,23.98-14.74,38.52-5.44,10.58,6.77,17.35,28.03,11.79,40.5-2.34,5.24-8.3,10.85-13.65,12.23-7.78,2-12.91-4.6-15.96-11.65-.86-1.98-.74-4.36-1.35-6.48-1.16-4.03-2.53-8.01-3.81-12.01-3.41,3.24-8.11,5.89-9.9,9.86-2.38,5.29-3.34,11.61-3.4,17.5-.09,9.96,1,19.94,1.59,29.91-.4.03-.79.05-1.19.08Z"/>
  <path class="cls-1" d="m1114.01,29.4c-.76,16.06-11.09,26.36-26.18,26.12-13.11-.21-24.76-11.99-24.15-24.42.64-12.98,19.32-31.62,30.63-30.55,11.09,1.05,20.38,14.65,19.7,28.85Z"/>
  <path class="cls-1" d="m736.91,333.57c-7.16-7.14-9.3-15.74-9.53-25.64-.57-24.96-1.22-49.95-3.02-74.84-.82-11.4-2.82-23.28-7.17-33.72-5.85-14.07-18.21-19.4-32.76-14.89-10.32,3.2-19.67,9.5-29.63,14.04-5.3,2.41-11.84,6.86-16.3,5.47-16.28-5.08-28.59,2.58-39.48,11.64-10.98,9.13-20.73,18.07-36.14,11.89-.46-.19-1.09,0-1.64.08-10.02,1.25-11.37,4.84-6.73,13.98,2.9,5.72,5.71,12.23,5.92,18.47,1.13,32.73,1.72,65.49,1.85,98.24.06,13.89-3.86,26.9-15.45,37.32,1.11-5.64,1.86-11.38,3.4-16.9,2.25-8.01,1.99-14.36-7.75-16.53-8.79-1.96-13.36,1.58-15.33,10.38-1.68,7.5-3.64,15.23-7.19,21.94-3.58,6.78-8.99,13.28-18.14,12.15-9.24-1.14-12.11-8.74-14.32-16.36-1.23-4.24-1.58-8.73-2.55-13.06-2.38-10.65.91-18.49,10.86-23.31,11.38-5.52,22.52-11.62,34.13-16.6,14.56-6.25,19.63-12.77,16.29-28.18-3.26-15.08-7.41-30.26-13.57-44.32-9.51-21.71-31.86-28.26-52.53-16.72-16.28,9.09-27.35,23.23-30.62,41.42-4.42,24.49-6.89,49.36-9.57,74.13-2.06,19.07,3.57,35.48,15.91,50.8,21.2,26.32,59.04,28,79.39,1.37,5.34-6.99,9.92-6.02,17.6-6.21,17.27-.41,34.83-3.6,51.52-8.34,9.92-2.82,9.61-11.18,2.82-19.62-4.24-5.27-9.37-11.8-9.65-17.97-1.52-33.27-2.04-66.6-1.91-99.91.03-6.66,3.79-13.65,7.09-19.81,1.51-2.83,6.05-4.01,9.22-5.94,1.62,3.22,4.21,6.31,4.66,9.69,1.31,9.89,1.63,19.91,2.59,29.86,2.72,28.19,6.09,56.23-3.56,84.11-2.08,6.02.12,14.37,2.54,20.81,1.29,3.44,8.04,7.91,10.98,7.08,14.77-4.18,29.41-9.24,43.46-15.46,7.67-3.4,9.01-9.64,2.97-17.61-4.07-5.37-6.8-12.81-7.44-19.58-2.7-28.74-4.54-57.56-6.3-86.38-.33-5.38-.28-11.73,2.23-16.09,2.69-4.69,8.49-7.57,12.93-11.23,2.69,4.41,7.26,8.62,7.74,13.26,2.17,20.96,3.15,42.04,4.63,63.07,1.01,14.37,1.97,28.75,3.27,43.1,1,11.02,7.64,18.15,17.1,22.84,9.84,4.88,18.31,2.1,27.45-8.39,7.01-8.04,7.28-15.9-.32-23.49Zm-249.1-54.03c.33-4.81,3.66-9.41,5.62-14.11,3.34,4.39,8.41,8.34,9.66,13.27,2.82,11.16,3.76,22.81,5.9,37.15-1.45,3.23-2.82,9.4-6.49,13.5-2.81,3.14-8.51,3.67-12.93,5.36-.95-4.06-2.67-8.11-2.69-12.17-.09-14.33-.06-28.71.93-42.99Z"/>
  <path class="cls-1" d="m451.1,741.98c-3.1,3.31-6.74,6.26-9.2,10-7.89,11.97-14.35,25.03-23.26,36.13-7.87,9.8-15.69,7.41-18.27-5.03-2.24-10.79-2.43-22.02-3.53-33.05-.95-9.49,3.52-13.95,12.65-16.03,13.39-3.05,26.54-7.2,39.72-11.12,7.86-2.34,15.48-6.6,13.84-15.93-3.63-20.69-6.98-41.71-13.66-61.5-6.88-20.38-27.3-26.57-46.14-15.93-7.54,4.26-14.12,10.48-20.5,16.49-10.21,9.62-9.94,9.83-17.66-2.45-1.45-2.3-3.24-4.52-5.3-6.26-9.96-8.41-17.59-9.22-29.91-.26-13.69,9.95-27.08,17.71-45.12,16.21-12.07-1-20.03,8.58-26.06,18.06-15.44,24.26-16.7,50.24-5.92,76.41,3.37,8.18,2.05,14.09-.6,21.86-4.03,11.83-7.65,24.57-7.57,36.9.18,26.49,17.31,39.1,42.84,33.67,8.08-1.72,16.03-4.12,24.11-5.86,14.5-3.11,22.11,4.03,20.51,18.96-1.91,17.86-18.66,35.07-36.52,38.37-8.15,1.51-12.62-1.31-14.78-9.05-1.64-5.87-3.06-11.88-5.47-17.44-3.51-8.1-16.68-16.76-23.74-15.55-10.74,1.84-15.23,10.04-17.75,19.65-5.2,19.81,4.61,36.1,25.18,41.44,7.45,1.93,15.17,2.83,22.64,4.72,13.78,3.49,26.42.88,37.59-7.44,28.4-21.13,41.85-48.77,37.21-85.05-3.06-23.89-24.55-49.07-56.73-40.52-4.79,1.27-9.52,2.9-14.39,3.7-1.57.26-3.48-1.6-5.23-2.49,1.25-2.13,2.06-4.89,3.89-6.2,1.52-1.09,4.25-.45,6.43-.65,36.94-3.49,54.72-23.51,52.34-60.6-.92-14.29-4.48-28.39-6.55-42.63-.35-2.44.74-5.09,1.16-7.64,2.06,1.29,4.39,2.29,6.14,3.92,3.48,3.27,6.17,9.12,10.02,9.93,10.58,2.24,9.2,8.71,8.32,16.3-1.59,13.77-2.56,27.6-4.16,45.52,1.95,13.71,3.08,31.57,7.3,48.66,4.92,19.95,21.65,32.07,38.14,30.79,27.43-2.12,53.76-26.61,57.61-54.14.58-4.16-.33-8.96-1.92-12.9-1.75-4.34-5.08-8.03-7.73-12.01Zm-53.75-45.5c1.34-11.53,2.43-22.58,4.07-33.55.35-2.33,2.67-4.36,4.09-6.52,1.6,1.95,4.2,3.71,4.62,5.89,2.11,10.88,4.13,21.83,5.27,32.84,1.08,10.4-2.7,14.91-10.78,14.49-9.81-.5-6.76-8.06-7.26-13.16Zm-99.02,44.87c-1.8,6.01-6.36,6.47-8.94.34-8.06-19.18-4.78-38.1,3-56.44,2.17-5.11,6.8-4.39,8.12.66,2.08,7.97,2.75,16.31,4.37,26.76-1.85,8.38-3.56,18.72-6.54,28.67Z"/>
  <path class="cls-1" d="m1357.65,70.63c1.58,2.77,1.01,6.94,2.85,9.35,1.6,2.1,5.69,4.17,7.93,3.55,13.07-3.62,20.3-22.93,14.61-37.68-5.68-14.74-14.46-18.03-30.28-11.28-2.53,1.08-5.29,1.99-7.39,3.67-7.87,6.29-15.94,7.03-26.09,5.49-17.37-2.63-35.89.57-47.29,14.16-14.2,16.93-29.5,54.96-11.59,82.25,3.97,6.04,4.47,11.17.88,18.32-19.13,38.11,2.64,72.31,44.78,71.57,6.05,0,12.19-.65,18.14.14,12.02,1.6,15.64,6.03,12.73,18.04-2.43,10.04-6.38,19.98-11.26,29.09-5.75,10.73-16.69,9.15-26.59,8.04-10.23-1.14-10.39-9.46-11.84-17.28-1.19-6.4-2.92-13.24-6.44-18.5-2.72-4.06-8.32-7.7-13.12-8.45-7.78-1.22-24.24,11.51-27.22,19.14-4,10.25-.87,20.4,9.29,29.55,2.87,2.58,5.89,5.04,9.07,7.23,44.34,30.54,93.3,13.71,108.93-37.39.81-2.65,1.78-5.25,2.7-7.86,11.83-33.63-9.36-69.51-44.5-74.63-9.22-1.34-18.71-.68-28-1.69-3.89-.42-7.58-2.77-11.37-4.25,3.82-2.03,7.46-4.57,11.5-5.94,3.58-1.21,7.6-1.04,11.4-1.61,21.98-3.29,35.45-15.77,41.49-37.42,5.03-18.03,1.78-35.05-3.09-52.35-.97-3.46,1.49-7.9,2.36-11.88,2.52,2.84,5.56,5.39,7.4,8.62Zm-47.9,59.23c-4.89,8.48-9.78,9.21-14.46.91-4.43-7.86-6.53-17.05-10.01-26.66,4.18-11.8,7.18-23.54,12.48-34.11,3.72-7.43,11.56-6.96,13.46.37,5.13,19.78,9.76,40-1.47,59.49Z"/>
  <path class="cls-1" d="m771.04,528.21c-6.41-14.99-19.59-23.42-35.45-20.68-7.37,1.27-15.14,4.05-21.24,8.3-23.3,16.23-38.31,37.8-39.96,67.41-.86,15.49-2.59,30.94-4.42,51.99,1.73,10.56,1.66,27.37,7.46,41.79,10.95,27.25,37.1,41.93,63.74,24.71,19.43-12.57,33.84-50.24,27.12-72.43-.82-2.71-3.73-6.47-5.87-6.61-2.38-.15-6.01,2.78-7.25,5.29-2.17,4.39-2.68,9.57-4.35,14.25-2.97,8.31-5.49,16.96-9.8,24.54-2.04,3.6-8,7.26-11.77,6.88-3.63-.37-8.61-5.41-9.7-9.32-2.79-10.07-4.03-20.62-5.37-31.04-.98-7.66,3.65-10.3,10.62-11.82,18.55-4.04,31.46-17.5,45.11-29.37,3.04-2.65,5.47-7.42,5.91-11.46,1.9-17.72,2.48-35.45-4.78-52.43Zm-34.68,50.69c-5.42,6.22-12.17,11.26-18.39,16.77-.62-6.14-2.15-12.36-1.64-18.4.68-8.12,2.27-16.34,4.83-24.06,1.13-3.42,5.6-5.72,8.55-8.52,2.25,3.28,5.34,6.27,6.52,9.9,1.31,4.06.89,8.69,1.3,14.23-.23,2.68.86,7.75-1.17,10.07Z"/>
  <path class="cls-1" d="m958.38,227.41c-7.94-.54-11.85,4.03-14,11.31-2.51,8.47-5.12,17.01-8.8,25-1.65,3.58-5.87,8-9.14,8.18-2.96.17-7.6-4.3-9.08-7.77-4.1-9.62-7.35-19.67-10.13-29.78-2.44-8.86,1.12-14.67,10.22-17.65,12.55-4.11,24.62-9.77,37.27-13.46,10.77-3.14,14.15-9.91,12.48-19.91-2.92-17.44-6.34-34.81-9.64-52.18-2.75-14.5-10.99-23.86-25.57-27.02-15.85-3.44-27.06,3.07-37.36,15.17-22.7,26.64-25.95,58.98-29.6,91.17,1.24,11.55,1.2,22.88,3.92,33.49,3.27,12.74,7.22,25.87,13.81,37.08,15.61,26.57,50.7,30.24,67.18,6.29,9.45-13.72,14.36-30.9,19.73-47.06,2.52-7.58-3.46-12.3-11.29-12.84Zm-42.46-82.63c.36-1.45,3.44-3.51,4.64-3.15,1.53.45,3.22,2.97,3.45,4.78.85,6.51,1.11,13.1,1.59,19.66.11,0,.22.01.33.02,0,4.93,0,9.87,0,14.8-.02,9.47-7.39,11.37-14.19,13-1.35.32-5.7-4.24-5.39-5.93,2.7-14.49,6.04-28.86,9.56-43.18Z"/>
  <path class="cls-1" d="m259.8,443.88c-1.04-8.77-7.87-10-14.32-11.06-6.77-1.12-7.55,4.18-8.91,9.32-2.24,8.44-4.01,17.47-8.4,24.78-7.11,11.83-21.62,10.4-27.23-2.18-2.9-6.5-4.1-13.75-6.13-20.65-2.99-10.13,1.01-15.94,10.9-18.31,10.17-2.44,20.42-4.63,30.45-7.56,20.51-5.99,22.71-9.26,22.26-31.92.59-18.67-4.93-37.32-16.17-53.45-4.97-7.14-13.41-13.82-21.6-16.32-29.32-8.95-56.69,4.97-63.43,42.09-5.28,29.13-5.02,58.58,1.39,87.59,4.5,20.39,13.58,38.64,29.53,52.7,8.7,7.66,18.58,12.19,30.34,8.71,18.32-5.42,43.55-44.79,41.31-63.73Zm-62.56-98.23c.38-2.94,4.35-5.41,6.67-8.1,2.32,2.67,6.13,5.05,6.68,8.05,1.49,8.1,1.59,16.46,2.05,22.3,0,9.08.05,15.71-.01,22.35-.07,7.36-5.64,10.13-10.99,9.26-3.26-.54-8.18-6.13-8.11-9.36.33-14.86,1.81-29.73,3.71-44.49Z"/>
  <path class="cls-1" d="m159.68,498.51c-4.5-2.98-9.98-6.2-12.12-10.7-4.66-9.82-8.37-20.33-10.83-30.94-4.2-18.16-2.75-37.68-14.54-54.03-1.81-2.5-.12-10.14,2.53-12.92,21.26-22.38,20.3-49.5,15.81-76.65-4.18-25.28-19.93-41.86-44.92-47.58-15.96-3.65-32.42-5.1-48.65-7.54l-.32,2.47c-3.3,0-6.61.07-9.91-.02-3.85-.1-7.74-.74-11.55-.44-10.96.87-13.75,7.7-8.01,16.98,3.89,6.3,8.64,13.31,9.09,20.27,1.23,18.77,2,37.86.01,56.51-4.47,42.01-8.58,83.83-3.37,126.11,1.24,10.04,2.95,21.11-5.27,30.16-.8.89,1.6,7.03,2.82,7.13,18.58,1.64,37.21,3,55.85,3.5,2.62.07,7.12-4.48,7.53-7.35.37-2.62-3.65-5.86-5.71-8.84-3.91-5.66-10.64-11.07-11.16-17.03-1.53-17.57-.82-35.37-.51-53.07.14-7.84,5.45-9.86,12.56-9.51,8.2.41,11.82,6.01,13.53,12.53,2.66,10.16,4.24,20.61,6.09,30.98,2.88,16.22,9.38,30.8,20.29,43,10.67,11.93,30.3,13.44,42.08,3.96,8.41-6.77,7.91-10.89-1.31-16.98Zm-69.92-118.94c-1.83,2.66-4.49,4.93-7.18,6.76-10.86,7.34-15.34,5.03-16.23-8.52-.94-14.38-1.49-28.79-2.21-43.19.25,0,.5,0,.75,0,0-13.85-.34-27.71.27-41.53.13-2.92,3.17-7.41,5.79-8.24,12.5-3.98,27.59,4.32,31.69,17.33,8.8,27.9,3.49,53.67-12.87,77.39Z"/>
  <path class="cls-1" d="m845.61,179.03c-4.36-25.91-17.87-35.4-44.26-33.28-12.73,1.02-14.04,0-15.85-12.75-.47-3.29-.6-6.63-.79-9.96-1.72-29.31-20.2-32.45-44.56-28.54-3.53.57-8.25,4.91-9,8.29-.68,3.03,2.47,9.01,5.45,10.4,9.35,4.36,10.24,11.75,10.54,20.55,1.17,34.37,3.38,68.72,3.96,103.1.44,26.03-1.01,52.1-1.6,78.15-.13,5.54-1.37,11.39-.01,16.54,1.55,5.89,4.1,13.83,8.59,16.09,7.52,3.79,11.75-3.89,14.02-10.2,3.76-10.47,9.15-10.59,17.4-4.81,9.24,6.46,18.66,4.76,27.84-1.12,19.56-12.52,33.61-28.63,35.11-53.18.54-8.85.97-17.71,1.45-26.56.43-.08.86-.17,1.29-.25-3.12-24.17-5.52-48.46-9.56-72.47Zm-37.48,109.2c-.81,4.28-4.65,7.97-7.11,11.93-2.56-3.81-6.66-7.34-7.4-11.49-2.56-14.18-4.72-28.52-5.57-42.89-1.11-18.82-.91-37.73-1.11-56.6-.07-6.4.95-13.38,8.87-13.5,7.69-.12,9.27,6.72,9.82,13.08,1.98,22.66,3.84,45.33,5.91,70-.91,8.58-1.46,19.16-3.41,29.46Z"/>
  <path class="cls-1" d="m224.7,694.05c-7.45-25.11-25.47-35.62-48.65-37.45-19.31-1.52-36.04,13.7-43.26,36.8-7.29,23.33-13.62,46.86-12.85,71.89,1.78,15.92,1.88,32.27,5.77,47.64,5.11,20.19,19.19,33.62,39.99,37.41,20.42,3.72,34.46-5.97,44.86-23.54,24.98-42.21,27.97-86.14,14.15-132.75Zm-37.57,105.03c-1.48,7.77-8.3,14.52-12.71,21.73-3.46-6.97-8.09-13.6-10.18-20.97-7.36-25.93-9.37-52.4-3.4-78.89,2.53-11.23,6.77-22.12,10.85-32.92,1.02-2.69,4.46-4.45,6.79-6.64,2.15,2.88,5.48,5.49,6.24,8.7,2.16,9.13,4,18.46,4.61,27.8.77,11.58.18,23.25.18,34.88.48.02.97.03,1.45.05-1.11,15.45-.97,31.14-3.84,46.26Z"/>
</svg>