<?xml version="1.0" encoding="UTF-8"?>
<svg xmlns="http://www.w3.org/2000/svg" version="1.1" viewBox="0 0 85 76.8">
  <defs>
    <style>
      .cls-1 {
        fill: #d59d6c;
      }

      .cls-2 {
        fill: #7d6f5f;
      }

      .cls-3 {
        fill: #e4e15f;
      }
    </style>
  </defs>
  <!-- Generator: Adobe Illustrator 28.7.1, SVG Export Plug-In . SVG Version: 1.2.0 Build 142)  -->
  <g>
    <g id="Layer_1">
      <g id="Layer_1-2" data-name="Layer_1">
        <g id="Layer_1-2">
          <path class="cls-3" d="M68.6,49.6c-5.5.4-2.4-6.2-6.2-6.5-7.2,10-11.5-2.1-16.8-5.6-7.8,3.1-15,5.3-23.2,2.8-2.9,6-14.1,8.4-16.2.2-5.1-4.6-4.2-7.5-1.8-12.4,1-3.4-.2-8.4.7-11.6,3-10.6,26.4-20.9,33.2-6.7,11,2,15.2-11.2,24.5,8,1.6,4.2,8.9,1.3,11.1,5.3,11.1,7.6,9.1,25.5-5.3,26.7v-.2Z"/>
        </g>
        <g id="Layer_3">
          <path class="cls-1" d="M15.2,34.3c3.8-.8,3.4,5.8,4.8-4.7,1.5,5.2,1.9,3.7,5-.8-8.7,10.1.5,36.8-5.4,43.6-2.2-9.9,4.4-31.8-4.5-38h0Z"/>
          <path class="cls-1" d="M47,19.3c2.8,11.6,4.5-1.8,4-5.7-.2,15-6.9,37.5-3.5,55.7,0,1.4-.2,3.6-1.7,2.9,0-41,.8-32.2-4.8-46.4-.4-.4,0-1.1.5-.5,2,3.2,1.2-6.7,2.3-3.3.2,1.8-2.8,7,1.2,9.5,4.8-2.2,1.3-12.1,2-12.2Z"/>
          <path class="cls-1" d="M72.1,39.8c.2,2.5-3.9,6.7,2.7,1.7.8,2.3-6.7,3.6-8.3,6-1.1,4.5,1.3,32.6-1.8,21.7-2.3,6,1.1-19.4-2.9-23.5-1.3-2.6-5.5-4.2-4-8,2.1,3.8.5,4.6,0,.4-1,5.1,4.8,4.6,2.2-.3,1.7,12,7.9,11,6.1-1.2,1.7,3.4-.3,5.7,2.9,1.8-5.4,8.7-1.3,10.5,3,1.5h.1Z"/>
          <path class="cls-1" d="M20.2,29.2c.4-1.8-.3-5.1,1.5-4.9-.7,1.4-.5,4.1-1.5,4.9Z"/>
          <path class="cls-1" d="M24.2,20c-.2,1.9-1.4,3.2-2.4,4.2.4-1.6,2.1-2.6,2.4-4.2Z"/>
        </g>
        <g id="Layer_2">
          <path class="cls-2" d="M53.5,72c.4-.2.6.2.3.5,0,0,0-.2-.3-.5Z"/>
          <path class="cls-2" d="M33.1,71.3c0,.2,0,.5-.2.7-.3-.3,0-1.4.2-.7Z"/>
          <path class="cls-2" d="M55.3,72.3c0,.2,0,.4-.2.6-.3-.3,0-1.5.2-.6Z"/>
          <path class="cls-2" d="M51.1,72.6c0-.7.2-.3.3,0,0,.4-.2.2-.3,0Z"/>
          <path class="cls-2" d="M38.8,71.8c.2-.5.2,0,.4.2,0,.3-.2,0-.4-.2Z"/>
          <path class="cls-2" d="M49.2,72.7c0,.2-.2.5-.4.2,0-.3.2-.7.4-.2Z"/>
          <path class="cls-2" d="M34.5,71.2c-.2.3-.3.4-.3,0s.2-.3.3,0Z"/>
          <path class="cls-1" d="M52.3,70.3v-.2.2Z"/>
          <path class="cls-2" d="M61.3,40.3c0,11.1,8.5,2.3,3.9-4.1,5.6,9.2-5.1,15.7-4.7,1.1.9.8,1,1.9.8,3Z"/>
          <path class="cls-2" d="M67.7,42c-4.1,9.6,3.1-.2,4.4-2.1-1.7,2.7-2.8,6.5-6.5,6.8.4-3.2,5.9-12.3,2.1-4.7Z"/>
          <path class="cls-2" d="M50.7,11.9c2.2,4.4-2.7,18.9-3.5,7.6,0,4.3,2.5,6.1,3.6-1.6,1-1.8-1.3-4.6,0-6.1h0Z"/>
          <path class="cls-2" d="M45.5,31.6c3.4-3.6,1-8.3,1.1-12.5.6,3,2.7,9.9-1.1,12.5Z"/>
          <path class="cls-2" d="M43,27.3c-.5,2.2,1.5,3.3,2.3,4.8-5.9-3.1.8-15.4-2.3-4.8Z"/>
          <path class="cls-2" d="M59.2,41.3c2.3,1.4.9-2.9.4-3.6,1.4.5,1.4,3.1.5,4.3-1.6.4-3.1-2.7-2-3.9-.3,1,0,3,1.1,3.3h0Z"/>
          <path class="cls-2" d="M42,37c-2-.9-4.6-4.3-5.5-6.4,1.5,2.1,3.5,4.7,5.5,6.4Z"/>
          <path class="cls-2" d="M74.7,41.5c-3,3.3-5.1,2.3-2.3-1.3-1.5,3.7-1.1,3.4,2.3,1.3Z"/>
          <path class="cls-2" d="M40.8,24.2c2.8,4.3,1.4-1.8,2.6-3.4-.3,2.3-.5,8.3-2.6,3.4Z"/>
          <path class="cls-2" d="M68.7,38.1c-1.5,4.6-1.9.5-2.5-1.7.8.5.8,1.5.9,2.4,0,4.2,1.5-2.3,1.6-.6h0Z"/>
          <path class="cls-2" d="M59.6,42.8h0Z"/>
          <path class="cls-2" d="M61.3,72.6c.4-.4-.2-.9.2-1.2.3.5.7,2.2-.2,1.2Z"/>
          <path class="cls-2" d="M26.4,71.9c.2.9.4,1.3-.2,1.9-.5-.4,0-1.1.2-1.9Z"/>
          <path class="cls-2" d="M64.1,71.9c0-.6.3-3,.6-2.3-.5.5.2,2.8-.6,2.3Z"/>
          <path class="cls-2" d="M58.4,72.4c1-.4,3.3-.3,1.5,0-.7.4-.9,1-1.5,0Z"/>
          <path class="cls-2" d="M27,71.1c.9-.2,3.3.6,1.9.9-.5-1.1-1.2-.2-1.9-.9Z"/>
          <path class="cls-2" d="M64.9,71.9c1.1-1.9,2.1,2.5.9,0-.4,0-.8.5-.9,0Z"/>
          <path class="cls-2" d="M23.4,70c.5.8,1,2.5.4,3-.4-.6-.2-2.1-.4-3Z"/>
          <path class="cls-2" d="M63.5,71.3c-.4,0,.2,1-.3,1.1-.7-.6-.7-4,.3-1.1Z"/>
          <path class="cls-2" d="M55.9,72.8c.5-.8-.2-1.8.4-2.4.4.2.3,3.6-.4,2.4Z"/>
          <path class="cls-2" d="M52.3,70.3c0,.8.2,2.1-.2,2.6-.2-.5-.3-3.6.2-2.6Z"/>
          <path class="cls-2" d="M25,73.4c-.8-.3-.2-.7-.3-1,0-2.8.7-.5.3,1Z"/>
          <path class="cls-2" d="M31.7,72.4c-.2-.8-.4-3.5.3-2.6-.5,1,.5,1.8-.3,2.6Z"/>
          <path class="cls-2" d="M35.6,71.8c0-.6-.3-3.1.4-2.4,0,.6.4,2.8-.4,2.4Z"/>
          <path class="cls-2" d="M50.5,38.1c-.5,2.7,6.4,10.8,5.3,8.9-3.9-1.6-4.4-5.3-5.3-8.9Z"/>
          <path class="cls-2" d="M70.3,72.3c-2.3,1-1.8-2.4-1.3-3.5.6,1.1-.7,3,1.3,3.5Z"/>
          <path class="cls-2" d="M70.2,72.2c.7.2,3.5-.4,3.2,1.4-1.2-2.2-1.1.3-3.2-1.4Z"/>
          <path class="cls-2" d="M17.7,73.2c-1.2.4-2.5.9-3.4,1.2.5-.3.4-1.8,1.6-.8.7.7,1.1-1.2,1.8-.3h0Z"/>
          <path class="cls-2" d="M41,25.7c8,13.7,3.5,31.3,4.4,46.4-1.3-15.8,3-32.1-4.4-46.4Z"/>
          <path class="cls-2" d="M55.7,9.1c3.5,4.9,8.7,11.5,2.8,16.5-2.1,1,.5,3.9-2.2,4.4-2.2.5,0,2.3-3,2.9-3.7,1.7.7,3.5-3.9,3.6,4.2-1,0-2.2,3.8-3.8,2.8-.9.6-2.5,2.7-2.8,3-.5,0-3.3,2.5-4.5,5.5-5.7.7-15.7-7.4-17.5,1.6.6,3.4.2,4.7,1.2Z"/>
          <path class="cls-2" d="M59.8,42.8c6.2,7.5,4.2,19,4,28.3-.6-8.7,1.6-17.6-2.2-25.4-1-2.1-6.2-5.1-3.6-8.4-.6,2-.3,4.7,1.8,5.5Z"/>
          <path class="cls-2" d="M80.2,39.3c.5,4.6-4.6,10.3-9.5,9.8,6.6-1.1,5.8-3.1,9.3-7.3,0-2.6-1.5-6,.5-8.5-.8,2.1-1.2,4.2-.4,6.1h0Z"/>
          <path class="cls-2" d="M25,2.6c-5.1,2.2-6.4,0-8,5-2-.9-2.2.2-3.2,2.1-.9-2.8,2.7-2.2,3.5-2.9.6-5.3,5-2.6,7.7-4.2Z"/>
          <path class="cls-2" d="M18.9,35.7c0,2-1.1-2-4.1-1.9.8,1.5-5.4-2.2-1.8-2.1,1.8.9,3.8,3.5,5.6,2.7,1-4.2,3.5-10.4-2.2-12.2,4.8,1.4,1.2.9.4-.5,5,3.5,5.8,1.2,7.7-3.6.6,4.8-5.9,9.6-3.2,14.9,2.4-1.5,4.5-7.8,6.6-7.4-10.3,12.7-5.8,29.9-6,45.1,0,8.9-3.6-33.5,2.7-41.2-6.4,11.2-2.7-6.2-5.8,6.2h.1ZM20.2,29.2c.9-.8.7-3.6,1.5-4.9-1.8-.1-1,3.1-1.5,4.9ZM24.2,20c-.2,1.6-2,2.6-2.4,4.2,1-1,2.2-2.3,2.4-4.2Z"/>
          <path class="cls-2" d="M19.5,59.6c-1.3,4,2.8,13.5-1.8,13.6,3.1-7.9,1.6-24.7.2-36,0-1.8-1.8-1.9-2.7-2.8,7.9,4.4,2.9,17.6,4.3,25.3h0Z"/>
          <path class="cls-2" d="M8.7,10.6c-10,12.1-2.8,8.7-1,16.6-10.4,3.5,1,22.9,8.9,14.4-1.1,4.9-8.3,1.8-11.1-.3-1.6-1.6.2-4.1-1.1-6-1-.8-2.2-2.5-1.8-4,5.8-5.9,6.4-3.9.9-9.9-.9-4.1,4.6-13.6,9.3-12.2.8,1.3-1.7-1.7-4,1.5h0Z"/>
          <path class="cls-2" d="M35.9,9.5c.8,3,1.9,1.6,3.6,4.1-.3-1.6,3.2-3.8,2.4-2.7-5.3,2.2,0,7.8-1.6,11.3-2.3,2.7,1.3,6.7-4.7,6.3-6.6,2.6,15.7,10-9.8,13.3,4.8-1.1,16.3-3.1,10.2-9.2-.8-1.2-4-.9-2.5-2.9,9.7-5.5,3.1.9,6.7-9.4-2-7.8-6.1-16.1-15.2-17.6,5-.4,8.4,2.6,10.8,6.9h0Z"/>
          <path class="cls-2" d="M69.6,22.3c4.6,1.6,8.2,4.8,10.7,9.1-2.9-4-7.1-9.5-12.8-8.5-1.2-.1,1.8-.6,2.2-.6h0Z"/>
          <path class="cls-2" d="M66.3,71.7c1.2-10.9-5.6-25.6,8.4-29.5-.6,1.7-3.1,1.2-4.1,2.5h0c-9.4,4.8-1.5,18.9-4.3,27Z"/>
          <path class="cls-2" d="M51.7,15.9c.4-10.4.3,8.6-2.9,12.5-3.4,14-1.1,29.1-1.5,43.1-1.8-18.8-.5-37.6,4.4-55.6Z"/>
        </g>
      </g>
    </g>
  </g>
</svg>