<svg xmlns="http://www.w3.org/2000/svg" viewBox="0 0 85 76.8"><defs><style>.cls-1{fill:#d59d6c}.cls-2{fill:#7d6f5f}</style></defs><g id="Layer_1"><path id="Layer_1-2" d="M47.4 48.1c-5.5.4-4.1-4.1-8-4.4-7.2 10-14.5-5.2-14.1-6.9C18 32 28.5 12.2 41.6 16.2c3.5 3.4 9-2.6 11.1 5.3 7.7 10.9 5.5 23.6-5.3 26.7Z" data-name="Layer_1" style="fill:#e4e15f"/><path id="Layer_3" d="M47.6 36.9c.2 2.5-3.9 6.7 2.7 1.7.8 2.3-6.7 3.6-8.3 6-1.1 4.5 1.3 32.6-1.8 21.7-2.3 6 1.1-19.4-2.9-23.5-1.3-2.6-5.5-4.2-4-8 2.1 3.8.5 4.6 0 .4-1 5.1 4.8 4.6 2.2-.3 1.7 12 7.9 11 6.1-1.2 1.7 3.4-.3 5.7 2.9 1.8-5.4 8.7-1.3 10.5 3 1.5Z" class="cls-1"/><g id="Layer_2"><path d="M49 67.9c.4-.2.6.2.3.5 0-.1-.1-.2-.3-.5ZM33.9 67.9c0 .2-.1.5-.2.7-.3-.3-.1-1.4.2-.7ZM50.8 68.3c0 .2-.1.4-.2.6-.3-.3 0-1.5.2-.6ZM46.7 68.5c0-.7.2-.3.3 0 0 .4-.2.2-.3 0ZM39.6 68.4c.2-.5.2-.1.4.2-.1.3-.2 0-.4-.2ZM44.7 68.7c-.1.2-.2.5-.4.2.1-.3.2-.7.4-.2ZM35.2 67.9c-.2.3-.3.4-.3 0 0-.3.2-.3.3 0Z" class="cls-2"/><path d="M47.9 66.2V66v.2Z" class="cls-1"/><path d="M36.8 37.7c0 11.1 8.5 2.3 3.9-4.1 5.6 9.2-5.1 15.7-4.7 1.1.9.8 1 1.9.8 3Z" class="cls-2"/><path d="M43.1 39.4c-4.1 9.6 3.1-.2 4.4-2.1-1.7 2.7-2.8 6.5-6.5 6.8.4-3.2 5.9-12.3 2.1-4.7ZM34.6 38.7c2.3 1.4.9-2.9.4-3.6 1.4.5 1.4 3.1.5 4.3-1.6.4-3.1-2.7-2-3.9-.3 1 0 3 1.1 3.3ZM50.2 38.9c-3 3.3-5.1 2.3-2.3-1.3-1.5 3.7-1.1 3.4 2.3 1.3ZM44.2 35.5c-1.5 4.6-1.9.5-2.5-1.7.8.5.8 1.5.9 2.4 0 4.2 1.5-2.3 1.6-.6Z" class="cls-2"/><path d="M42.6 36.1V36v.1Z" class="cls-1"/><path d="M35 40.2ZM56.9 68.5c.4-.4-.2-.9.2-1.2.3.5.7 2.2-.2 1.2ZM27.2 68.5c.2.9.4 1.3-.2 1.9-.5-.4 0-1.1.2-1.9ZM59.6 67.9c.1-.6.3-3 .6-2.3-.5.5.2 2.8-.6 2.3ZM53.9 68.4c1-.4 3.3-.3 1.5 0-.7.4-.9 1-1.5 0ZM27.8 67.8c.9-.2 3.3.6 1.9.9-.5-1.1-1.2-.2-1.9-.9ZM60.4 67.9c1.1-1.9 2.1 2.5.9.1-.4.1-.8.5-.9-.1ZM24.1 66.6c.5.8 1 2.5.4 3-.4-.6-.2-2.1-.4-3ZM59 67.3c-.4 0 .2 1-.3 1.1-.7-.6-.7-4 .3-1.1ZM51.5 68.7c.5-.8-.2-1.8.4-2.4.4.2.3 3.6-.4 2.4ZM47.9 66.2c.1.8.2 2.1-.2 2.6-.2-.5-.3-3.6.2-2.6ZM25.8 70c-.8-.3-.2-.7-.3-1 0-2.8.7-.5.3 1ZM32.5 69.1c-.2-.8-.4-3.5.3-2.6-.5 1 .5 1.8-.3 2.6ZM36.4 68.4c0-.6-.3-3.1.4-2.4-.1.6.4 2.8-.4 2.4ZM25.9 35.5c-.5 2.7 6.4 10.8 5.3 8.9-3.9-1.6-4.4-5.3-5.3-8.9ZM65.8 68.2c-2.3 1-1.8-2.4-1.3-3.5.6 1.1-.7 3 1.3 3.5ZM65.8 68.2c.7.2 3.5-.4 3.2 1.4-1.2-2.2-1.1.3-3.2-1.4ZM18.5 69.8c-1.2.4-2.5.9-3.4 1.2.5-.3.4-1.8 1.6-.8.7.7 1.1-1.2 1.8-.3Z" class="cls-2"/><path d="M23.7 31.5c1.5-5.8 3.2-14 10.9-12.7 2.1 1 2.8-2.5 4.9-.7 1.8 1.3 1.7-1.8 4 0 3.7 1.7 2.2-2.8 5.3.7-3.4-2.6-1.7 1.4-5.4-.4-2.5-1.6-2.3 1.1-3.9-.2-2.4-2-2.4 2.2-5 1-7.9-.5-12.5 9.6-8.6 16.9-.6-1.6-2-2.7-2.1-4.4ZM35.3 40.2c6.2 7.5 4.2 19 4 28.3-.6-8.7 1.6-17.6-2.2-25.4-1-2.1-6.2-5.1-3.6-8.4-.6 2-.3 4.7 1.8 5.5ZM55.6 36.7c.5 4.6-4.6 10.3-9.5 9.8 6.6-1.1 5.8-3.1 9.3-7.3 0-2.6-1.5-6 .5-8.5-.8 2.1-1.2 4.2-.4 6.1Z" class="cls-2"/><path d="M45.1 19.6c4.6 1.6 8.2 4.8 10.7 9.1-2.9-4-7.1-9.5-12.8-8.5-1.2-.1 1.8-.6 2.2-.6ZM41.7 69.1c1.2-10.9-5.6-25.6 8.4-29.5-.6 1.7-3.1 1.2-4.1 2.5-9.4 4.8-1.5 18.9-4.3 27Z" class="cls-2"/></g></g></svg>