<svg xmlns="http://www.w3.org/2000/svg" viewBox="0 0 85 76.8"><defs><style>.cls-1{fill:#d59d6c}.cls-2{fill:#7d6f5f}.cls-3{fill:#e4e15f}</style></defs><g id="Layer_1"><path id="Layer_1-2" d="M38.3 41.2c-7.1 2.5-13.5-16.5-4.8-21.3 4.8-2.5 13.2-9.6 20.4 5.6 1.5 3.4-6 20.6-15.6 15.7Z" class="cls-3" data-name="Layer_1"/><path id="Layer_3" d="M40.9 26.4c2.5 9.6 4.1-1.5 3.6-4.8-.2 12.4-4.3 31.4-1.3 46.5.1 1.2-.2 3-1.5 2.4 0-34.1-1.2-27-6.3-38.8-.4-.4 0-.9.5-.4 1.8 2.7 1.1-5.5 2.1-2.7.2 1.5-2.5 5.8 1.1 7.9 4.4-1.9 1.2-10 1.8-10.2Z" class="cls-1"/><g id="Layer_2"><path d="M47.1 70.4c.4-.2.6.2.3.5 0-.1-.1-.2-.3-.5ZM32.7 70.2c0 .2-.1.5-.2.7-.3-.3-.1-1.4.2-.7ZM48.9 70.7c0 .2-.1.4-.2.6-.3-.3 0-1.5.2-.6ZM44.7 71c0-.7.2-.3.3 0 0 .4-.2.2-.3 0ZM38.4 70.8c.2-.5.2-.1.4.2-.1.3-.2 0-.4-.2ZM42.8 71.1c-.1.2-.2.5-.4.2.1-.3.2-.7.4-.2ZM34.1 70.2c-.2.3-.3.4-.3 0 0-.3.2-.3.3 0Z" class="cls-2"/><path d="M45.9 68.7v-.2.2Z" class="cls-1"/><path d="M44.5 20.3c1.8 3.7-2.2 15.7-2.9 6.3.1 3.5 2.1 5.1 3-1.3.8-1.5-1.1-3.8-.1-5Z" class="cls-2"/><path d="M40.1 36.7c2.8-3 .9-6.9.9-10.4.5 2.5 2.3 8.3-.9 10.4ZM38 33.1c-.4 1.9 1.3 2.7 1.9 4-5-2.6.7-12.8-1.9-4ZM37.1 41.2c-1.6-.7-3.9-3.6-4.6-5.3 1.3 1.8 2.9 3.9 4.6 5.3Z" class="cls-2"/><path d="M36.1 30.5c2.4 3.6 1.2-1.5 2.2-2.9-.2 1.9-.4 6.9-2.2 2.9Z" class="cls-2"/><path d="M41 27.9v.2-.2ZM44.6 25.3Z" class="cls-1"/><path d="M45.5 23.3c.2 1.1-.1 2.2-.2 3.3 0-1.1.2-2.2.2-3.3Z" class="cls-3"/><path d="M53.2 41.2Z" class="cls-2"/><path d="M8 31.8Z" class="cls-1"/><path d="M55 71c.4-.4-.2-.9.2-1.2.3.5.7 2.2-.2 1.2ZM26 70.9c.2.9.4 1.3-.2 1.9-.5-.4 0-1.1.2-1.9ZM57.7 70.3c.1-.6.3-3 .6-2.3-.5.5.2 2.8-.6 2.3ZM52 70.9c1-.4 3.3-.3 1.5 0-.7.4-.9 1-1.5 0ZM26.6 70.1c.9-.2 3.3.6 1.9.9-.5-1.1-1.2-.2-1.9-.9ZM58.5 70.3c1.1-1.9 2.1 2.5.9.1-.4.1-.8.5-.9-.1ZM23 69c.5.8 1 2.5.4 3-.4-.6-.2-2.1-.4-3ZM57.1 69.7c-.4 0 .2 1-.3 1.1-.7-.6-.7-4 .3-1.1ZM49.5 71.2c.5-.8-.2-1.8.4-2.4.4.2.3 3.6-.4 2.4ZM45.9 68.7c.1.8.2 2.1-.2 2.6-.2-.5-.3-3.6.2-2.6ZM24.7 72.4c-.8-.3-.2-.7-.3-1 0-2.8.7-.5.3 1ZM31.3 71.4c-.2-.8-.4-3.5.3-2.6-.5 1 .5 1.8-.3 2.6ZM35.2 70.7c0-.6-.3-3.1.4-2.4-.1.6.4 2.8-.4 2.4ZM63.9 70.7c-2.3 1-1.8-2.4-1.3-3.5.6 1.1-.7 3 1.3 3.5Z" class="cls-2"/><path d="M63.9 70.7c.7.2 3.5-.4 3.2 1.4-1.2-2.2-1.1.3-3.2-1.4ZM36.3 31.8C43 43.2 41 58 41.8 70.6c-1.1-13.1.7-26.9-5.5-38.8ZM48.6 17.9c2.9 4.1 7.2 9.5 2.3 13.7-1.7.8.4 3.3-1.8 3.6-1.8.4-.1 1.9-2.5 2.4-3.1 1.4.6 2.9-3.3 3 3.5-.8 0-1.8 3.2-3.2 2.4-.8.5-2 2.2-2.4 2.5-.4-.1-2.7 2-3.7 4.6-4.7.6-13.1-6.2-14.5 1.3.5 2.8.2 4 1ZM37.5 18.2c-3.7 3.2-5.4 1.8-5.4 6.4-2-.2-1.8.7-2.1 2.7-1.6-2.1 1.7-2.6 2.2-3.4-1-4.7 3.5-3.6 5.4-5.7Z" class="cls-2"/><path d="M45.3 23.6c.3-8.7.2 7.2-2.4 10.4-2.8 11.6.9 24.4.6 36-1.5-15.6-2.3-31.5 1.9-46.4Z" class="cls-2"/></g></g></svg>