<svg xmlns="http://www.w3.org/2000/svg" viewBox="0 0 85 76.8"><defs><style>.cls-1{fill:#d59d6c}.cls-2{fill:#7d6f5f}</style></defs><g id="Layer_1"><path id="Layer_1-2" d="M62 17.2c3.5 12-7.1 11.7-4.6 13.8 6.7 5.5-.6 13.7-12.5 12.5-2.9 6.2-18.2 4-17.8-1.1-1.5-2.9-6.3-8.6-.3-13.5-3.5-8.1-2.3-11.4-1.4-14.7 3-10.9 29.9-19.2 36.4 2.9Z" data-name="Layer_1" style="fill:#e4e15f"/><g id="Layer_3"><path d="M36.6 35.6c3.8-.8 3.4 5.8 4.8-4.7 1.5 5.2 1.9 3.7 5-.8-8.7 10.1.5 36.8-5.4 43.6-2.2-9.9 4.4-31.8-4.5-38ZM41.6 30.5c.4-1.8-.3-5.1 1.5-4.9-.7 1.4-.5 4.1-1.5 4.9ZM45.6 21.2c-.2 1.9-1.4 3.2-2.4 4.2.4-1.6 2.1-2.6 2.4-4.2Z" class="cls-1"/></g><g id="Layer_2"><path d="M25.9 71.4c.4-.2.6.2.3.5 0-.1-.1-.2-.3-.5ZM54.7 72.4c0 .2-.1.5-.2.7-.3-.3-.1-1.4.2-.7ZM27.7 71.8c0 .2-.1.4-.2.6-.3-.3 0-1.5.2-.6ZM23.5 72c0-.7.2-.3.3 0 0 .4-.2.2-.3 0ZM60.3 72.9c.2-.5.2-.1.4.2-.1.3-.2 0-.4-.2ZM21.6 72.2c-.1.2-.2.5-.4.2.1-.3.2-.7.4-.2ZM56 72.4c-.2.3-.3.4-.3 0 0-.3.2-.3.3 0Z" class="cls-2"/><path d="M24.7 69.7v-.2.2Z" class="cls-1"/><path d="M33.7 72c.4-.4-.2-.9.2-1.2.3.5.7 2.2-.2 1.2ZM47.9 73.1c.2.9.4 1.3-.2 1.9-.5-.4 0-1.1.2-1.9ZM36.5 71.4c.1-.6.3-3 .6-2.3-.5.5.2 2.8-.6 2.3ZM30.8 71.9c1-.4 3.3-.3 1.5 0-.7.4-.9 1-1.5 0ZM48.6 72.3c.9-.2 3.3.6 1.9.9-.5-1.1-1.2-.2-1.9-.9ZM37.3 71.4c1.1-1.9 2.1 2.5.9.1-.4.1-.8.5-.9-.1ZM44.9 71.1c.5.8 1 2.5.4 3-.4-.6-.2-2.1-.4-3ZM35.9 70.8c-.4 0 .2 1-.3 1.1-.7-.6-.7-4 .3-1.1ZM28.3 72.2c.5-.8-.2-1.8.4-2.4.4.2.3 3.6-.4 2.4ZM24.7 69.7c.1.8.2 2.1-.2 2.6-.2-.5-.3-3.6.2-2.6ZM46.6 74.6c-.8-.3-.2-.7-.3-1 0-2.8.7-.5.3 1ZM53.2 73.6c-.2-.8-.4-3.5.3-2.6-.5 1 .5 1.8-.3 2.6ZM57.1 72.9c0-.6-.3-3.1.4-2.4-.1.6.4 2.8-.4 2.4ZM45.7 70.7c-2.3 1-1.8-2.4-1.3-3.5.6 1.1-.7 3 1.3 3.5ZM45.7 70.7c.7.2 3.5-.4 3.2 1.4-1.2-2.2-1.1.3-3.2-1.4ZM39.3 74.4c-1.2.4-2.5.9-3.4 1.2.5-.3.4-1.8 1.6-.8.7.7 1.1-1.2 1.8-.3ZM46.5 3.7c-5.1 2.2-6.4 0-8 5-2-.9-2.2.2-3.2 2.1-.9-2.8 2.7-2.2 3.5-2.9.6-5.3 5-2.6 7.7-4.2Z" class="cls-2"/><path d="M40.5 36.8c0 2-1.1-2-4.1-1.9.8 1.5-5.4-2.2-1.8-2.1 1.8.9 3.8 3.5 5.6 2.7 1-4.2 3.5-10.4-2.2-12.2 4.8 1.4 1.2.9.4-.5 5 3.5 5.8 1.2 7.7-3.6.6 4.8-5.9 9.6-3.2 14.9 2.4-1.5 4.5-7.8 6.6-7.4-10.3 12.7-5.8 29.9-6 45.1 0 8.9-3.6-33.5 2.7-41.2-6.4 11.2-2.7-6.2-5.8 6.2Zm1.3-6.4c.9-.8.7-3.6 1.5-4.9-1.8-.1-1 3.1-1.5 4.9Zm4-9.3c-.2 1.6-2 2.6-2.4 4.2 1-1 2.2-2.3 2.4-4.2Z" class="cls-2"/><path d="M41 60.7c-1.3 4 2.8 13.5-1.8 13.6 3.1-7.9 1.6-24.7.2-36 0-1.8-1.8-1.9-2.7-2.8 7.9 4.4 2.9 17.6 4.3 25.3Z" class="cls-2"/><path d="M30.3 11.7c-10 12.1-2.8 8.7-1 16.6-10.4 3.5 1 22.9 8.9 14.4-1.1 4.9-8.3 1.8-11.1-.3-1.6-1.6.2-4.1-1.1-6-1-.8-2.2-2.5-1.8-4 5.8-5.9 6.4-3.9.9-9.9-.9-4.1 4.6-13.6 9.3-12.2.8 1.3-1.7-1.7-4 1.5ZM62 22.9c-2.3 2.7 1.3 6.7-4.7 6.3-6.6 2.6 15.7 10-9.8 13.3 4.8-1.1 16.3-3.1 10.2-9.2-.8-1.2-4-.9-2.5-2.9 9.7-5.5 6.7-8.4 6.7-9.4-2.5-8.4-6.1-16.1-15.2-17.6 5-.4 8.4 2.6 10.8 6.9 2.1 2.4 2.4 1.5 3.6 4.1" class="cls-2"/></g></g></svg>